<svg width="238" height="238" viewBox="0 0 238 238" fill="none" xmlns="http://www.w3.org/2000/svg">
<g opacity="0.5">
<rect x="27.5" y="27.5" width="183" height="183" rx="91.5" stroke="#08DBBA"/>
</g>
<g opacity="0.2">
<rect x="4.5" y="2.5" width="229" height="229" rx="114.5" stroke="#08DBBA"/>
</g>
<g filter="url(#filter0_d_403_36)">
<rect x="50" y="50" width="138" height="138" rx="69" fill="#08DBBA" shape-rendering="crispEdges"/>
<g clip-path="url(#clip0_403_36)">
<path d="M133.937 139.272C136.883 139.272 139.272 136.883 139.272 133.937C139.272 130.991 136.883 128.602 133.937 128.602C130.991 128.602 128.602 130.991 128.602 133.937C128.602 136.883 130.991 139.272 133.937 139.272Z" stroke="white" stroke-width="4" stroke-miterlimit="10" stroke-linecap="round" stroke-linejoin="round"/>
<path d="M137.597 120.557L137.138 116.866H130.736L130.277 120.557C129.146 120.866 128.069 121.316 127.066 121.887L124.132 119.603L119.597 124.13L121.891 127.067C121.315 128.065 120.867 129.141 120.557 130.275L116.866 130.736V137.138L120.557 137.599C120.867 138.733 121.315 139.808 121.891 140.807L119.597 143.744L124.132 148.271L127.066 145.987C128.069 146.557 129.136 147.008 130.277 147.317L130.736 151.008H137.138L137.597 147.317C138.728 147.008 139.805 146.558 140.808 145.987L143.742 148.271L148.277 143.744L145.983 140.807C146.559 139.809 147.007 138.733 147.316 137.599L151.008 137.138V130.736L147.316 130.275C147.007 129.141 146.559 128.066 145.983 127.067L148.277 124.13L143.742 119.603L140.808 121.887C139.805 121.317 138.738 120.866 137.597 120.557Z" stroke="white" stroke-width="4" stroke-miterlimit="10" stroke-linecap="round" stroke-linejoin="round"/>
<path d="M102.996 97.6615C105.942 97.6615 108.331 95.2731 108.331 92.3269C108.331 89.3806 105.942 86.9922 102.996 86.9922C100.05 86.9922 97.6614 89.3806 97.6614 92.3269C97.6614 95.2731 100.05 97.6615 102.996 97.6615Z" stroke="white" stroke-width="4" stroke-miterlimit="10" stroke-linecap="round" stroke-linejoin="round"/>
<path d="M102.996 129.669C105.942 129.669 108.331 127.281 108.331 124.335C108.331 121.388 105.942 119 102.996 119C100.05 119 97.6614 121.388 97.6614 124.335C97.6614 127.281 100.05 129.669 102.996 129.669Z" stroke="white" stroke-width="4" stroke-miterlimit="10" stroke-linecap="round" stroke-linejoin="round"/>
<path d="M117.933 113.665C120.879 113.665 123.268 111.277 123.268 108.331C123.268 105.385 120.879 102.996 117.933 102.996C114.987 102.996 112.598 105.385 112.598 108.331C112.598 111.277 114.987 113.665 117.933 113.665Z" stroke="white" stroke-width="4" stroke-miterlimit="10" stroke-linecap="round" stroke-linejoin="round"/>
<path d="M123.268 108.331H133.937" stroke="white" stroke-width="4" stroke-miterlimit="10" stroke-linecap="round" stroke-linejoin="round"/>
<path d="M86.9922 92.3269H97.6614" stroke="white" stroke-width="4" stroke-miterlimit="10" stroke-linecap="round" stroke-linejoin="round"/>
<path d="M86.9922 124.335H97.6614" stroke="white" stroke-width="4" stroke-miterlimit="10" stroke-linecap="round" stroke-linejoin="round"/>
<path d="M133.937 92.3269H108.331" stroke="white" stroke-width="4" stroke-miterlimit="10" stroke-linecap="round" stroke-linejoin="round"/>
<path d="M119.757 124.335H108.331" stroke="white" stroke-width="4" stroke-miterlimit="10" stroke-linecap="round" stroke-linejoin="round"/>
<path d="M86.9922 108.331H112.598" stroke="white" stroke-width="4" stroke-miterlimit="10" stroke-linecap="round" stroke-linejoin="round"/>
</g>
</g>
<defs>
<filter id="filter0_d_403_36" x="0" y="0" width="238" height="238" filterUnits="userSpaceOnUse" color-interpolation-filters="sRGB">
<feFlood flood-opacity="0" result="BackgroundImageFix"/>
<feColorMatrix in="SourceAlpha" type="matrix" values="0 0 0 0 0 0 0 0 0 0 0 0 0 0 0 0 0 0 127 0" result="hardAlpha"/>
<feOffset/>
<feGaussianBlur stdDeviation="25"/>
<feComposite in2="hardAlpha" operator="out"/>
<feColorMatrix type="matrix" values="0 0 0 0 0.027451 0 0 0 0 0.905882 0 0 0 0 0.768627 0 0 0 0.4 0"/>
<feBlend mode="normal" in2="BackgroundImageFix" result="effect1_dropShadow_403_36"/>
<feBlend mode="normal" in="SourceGraphic" in2="effect1_dropShadow_403_36" result="shape"/>
</filter>
<clipPath id="clip0_403_36">
<rect width="68" height="68" fill="white" transform="translate(85 85)"/>
</clipPath>
</defs>
</svg>
