<svg width="80" height="60" viewBox="0 0 80 60" fill="none" xmlns="http://www.w3.org/2000/svg">
<rect width="80" height="60" rx="30" fill="#F3FEFC"/>
<rect width="80" height="60" rx="30" fill="black" fill-opacity="0.06"/>
<path d="M23.7593 11.875C22.2078 11.875 21.3973 12.6989 21.0096 13.4742C20.622 14.2495 20.627 15.0086 20.627 15.0086V37.5404C20.627 37.5404 20.6221 38.2995 21.0096 39.0747C21.3973 39.85 22.2017 40.6727 23.7593 40.6727H32.7726V39.4208H23.7593C22.8367 39.4208 22.3667 38.9915 22.1283 38.5148C21.89 38.0381 21.8789 37.5404 21.8789 37.5404V15.0086C21.8789 15.0086 21.8899 14.5108 22.1283 14.0342C22.3667 13.5575 22.7993 13.1282 23.7593 13.1282H56.3093C57.2517 13.1282 57.7019 13.5575 57.9403 14.0342C58.1786 14.5108 58.186 15.0086 58.186 15.0086V37.5404C58.186 37.5404 58.1785 38.0381 57.9403 38.5148C57.7019 38.9915 57.2548 39.4207 56.3093 39.4208H47.2923V40.6727H56.3093C57.8588 40.6727 58.6713 39.85 59.059 39.0747C59.4466 38.2995 59.438 37.5404 59.438 37.5404V15.0086C59.438 15.0086 59.4466 14.2495 59.059 13.4742C58.6713 12.6989 57.8568 11.875 56.3093 11.875H23.7593Z" fill="#202020"/>
<path d="M21.252 18.752V19.9976H58.7519V18.752H21.252Z" fill="#202020"/>
<path d="M24.3748 15.002C24.0313 15.0031 23.7531 15.2813 23.752 15.6248C23.7506 15.9701 24.0295 16.2511 24.3748 16.2523H25.6251C25.9722 16.2536 26.2539 15.9719 26.2526 15.6248C26.2514 15.2795 25.9704 15.0006 25.6251 15.002H24.3748Z" fill="#202020"/>
<path d="M28.1248 15.002C27.7813 15.0031 27.5031 15.2813 27.502 15.6248C27.5006 15.9701 27.7795 16.2511 28.1248 16.2523H29.3751C29.7204 16.2511 29.9993 15.9701 29.998 15.6248C29.9968 15.2813 29.7186 15.0031 29.3751 15.002H28.1248Z" fill="#202020"/>
<path d="M31.8775 15.002C31.5322 15.0006 31.2512 15.2795 31.25 15.6248C31.2486 15.9719 31.5304 16.2536 31.8775 16.2523H33.1278C33.4731 16.2511 33.752 15.9701 33.7506 15.6248C33.7494 15.2813 33.4713 15.0031 33.1278 15.002H31.8775Z" fill="#202020"/>
<path d="M35.6801 24.0321L31.1772 25.5315C30.2828 25.8296 29.5836 26.5334 29.2855 27.4277L27.5323 32.6781C27.2179 33.6215 27.7857 34.6515 28.7504 34.8927L32.5982 35.8569L32.9027 34.6435L29.0549 33.6839C28.7784 33.6148 28.6279 33.3452 28.7181 33.0749L30.4713 27.8245C30.6453 27.3024 31.0518 26.8913 31.5739 26.7172L35.4345 25.4351C35.6377 25.8757 36.0355 26.2584 36.4644 26.5234C37.1509 26.9477 39.0346 27.1832 40.002 27.1832C41.9693 27.1832 42.853 26.9477 43.5395 26.5234C43.9672 26.2591 44.3586 25.8757 44.5703 25.4354L48.43 26.7172C48.9521 26.8913 49.3586 27.3024 49.5327 27.8245L51.2859 33.0749C51.376 33.3452 51.2255 33.6148 50.9491 33.6839L47.1012 34.6435L47.4011 35.8569L51.2536 34.8927C52.2182 34.6515 52.786 33.6215 52.4716 32.6781L50.7184 27.4277C50.4203 26.5334 49.7165 25.8296 48.8221 25.5315L44.3238 24.0321C43.9187 23.8981 43.5014 24.2005 43.5026 24.6272C43.5026 24.8873 43.3289 25.1829 42.8843 25.4577C42.4398 25.7324 41.7605 25.9329 40.002 25.9329C39.2434 25.9329 37.5641 25.7324 37.1196 25.4577C36.675 25.1829 36.5013 24.8873 36.5013 24.6272C36.5025 24.2005 36.0852 23.8981 35.6801 24.0321Z" fill="#202020"/>
<path d="M32.7498 32.875C32.4045 32.8762 32.1256 33.1572 32.127 33.5025V45.3781C32.127 46.7514 33.2543 47.8787 34.6276 47.8787H45.3751C46.7484 47.8787 47.8757 46.7514 47.8757 45.3781V33.5025C47.8771 33.1572 47.5982 32.8762 47.2529 32.875C46.9058 32.8736 46.6241 33.1554 46.6254 33.5025V45.3781C46.6254 46.0758 46.0729 46.6284 45.3751 46.6284H34.6276C33.9298 46.6284 33.3773 46.0758 33.3773 45.3781V33.5025C33.3786 33.1554 33.0969 32.8736 32.7498 32.875Z" fill="#202020"/>
</svg>
