<svg width="80" height="60" viewBox="0 0 80 60" fill="none" xmlns="http://www.w3.org/2000/svg">
<rect width="80" height="60" rx="30" fill="#F3FEFC"/>
<rect width="80" height="60" rx="30" fill="black" fill-opacity="0.06"/>
<g clip-path="url(#clip0_8212_17022)">
<path d="M53.6705 15.8126C45.9023 8.30988 33.5867 8.30988 25.8185 15.8126C25.8165 15.8145 25.8146 15.8164 25.8126 15.8184C18.1215 23.7817 18.3421 36.472 26.3054 44.1632C34.0736 51.6658 46.3891 51.6658 54.1574 44.1632C54.1593 44.1612 54.1612 44.1593 54.1632 44.1573C61.8544 36.1941 61.6337 23.5037 53.6705 15.8126ZM52.9262 42.8613C52.9121 42.8671 52.8989 42.8757 52.8874 42.8872C45.7567 50.0114 34.2009 50.0061 27.0767 42.8754C19.9525 35.7447 19.9578 24.189 27.0885 17.0648C34.2192 9.9407 45.775 9.94592 52.8992 17.0765C56.3212 20.5017 58.242 25.1461 58.2389 29.9877V29.9879C58.2392 34.813 56.3288 39.4412 52.9262 42.8613Z" fill="#202020"/>
<path d="M51.1983 35.5436L47.4873 31.8457C46.5991 30.9554 45.157 30.9537 44.2664 31.8421L42.1365 33.9721C42.0163 34.0925 41.8269 34.1092 41.6876 34.0116L41.6875 34.0114C40.5295 33.2023 39.4457 32.2919 38.4484 31.2913L38.4481 31.2911C37.555 30.4 36.7333 29.44 35.9908 28.4198C35.9906 28.4196 35.9906 28.4196 35.9905 28.4194C35.8899 28.2825 35.9046 28.0927 36.0248 27.9727L38.204 25.7936C39.0914 24.9044 39.0914 23.4647 38.204 22.5755L34.4931 18.8646C34.4925 18.864 34.4918 18.8634 34.4912 18.8628C33.5903 18.0015 32.1711 18.0015 31.2703 18.8628C31.2695 18.8634 31.2689 18.864 31.2683 18.8646L30.0932 20.0397C28.2866 21.8263 27.6417 24.4788 28.4265 26.8953C28.4266 26.8955 28.4267 26.8958 28.4268 26.896C29.0055 28.6431 29.8236 30.3016 30.8576 31.8242C31.7873 33.2182 32.8538 34.5159 34.0415 35.6979C35.3327 36.9984 36.763 38.1528 38.3066 39.1406C40.0062 40.2496 41.8724 41.0794 43.8342 41.5987C43.8348 41.5989 43.8355 41.599 43.8362 41.5992C44.3468 41.725 44.8707 41.7883 45.3966 41.7875C45.3967 41.7875 45.3969 41.7875 45.3971 41.7875C47.1981 41.7764 48.9211 41.0516 50.1883 39.7717L51.1984 38.7615C52.0857 37.8724 52.0858 36.4328 51.1983 35.5436ZM50.1398 37.8036L50.1335 37.8099L50.0706 37.7234C50.0763 37.7059 50.086 37.6898 50.0995 37.6762L49.0887 38.687C47.8204 39.9714 45.9733 40.5001 44.2175 40.0817C42.4196 39.6003 40.7108 38.8343 39.1556 37.8128C39.1552 37.8126 39.1548 37.8123 39.1544 37.8121C37.7065 36.8868 36.3648 35.8051 35.1535 34.5864C35.1533 34.5861 35.1531 34.586 35.1529 34.5858C34.0383 33.4793 33.037 32.2645 32.1636 30.9592C32.1635 30.9589 32.1632 30.9587 32.1631 30.9585C31.2092 29.5562 30.4542 28.0285 29.9195 26.419C29.3167 24.5586 29.8164 22.5173 31.2106 21.146L32.3868 19.9698C32.6673 19.688 33.1232 19.687 33.405 19.9675L33.4067 19.9692L33.4074 19.97L37.1184 23.681C37.4002 23.9615 37.4012 24.4174 37.1207 24.6991L34.9394 26.8804C34.2727 27.5401 34.189 28.5882 34.7425 29.3454C35.5341 30.4318 36.4103 31.4542 37.3625 32.4032C38.4243 33.4695 39.5786 34.4396 40.8119 35.302L40.812 35.3021C41.5684 35.8297 42.5937 35.7407 43.248 35.0909C43.2483 35.0906 43.2486 35.0902 43.2489 35.0899L45.3549 32.9509C45.6355 32.6693 46.0912 32.6683 46.3729 32.9488L46.3754 32.9513L50.093 36.6755C50.3749 36.956 50.3759 37.4118 50.0953 37.6936L50.0955 37.6934C50.0948 37.6941 50.0933 37.6957 50.0933 37.6957C50.0933 37.6957 50.0955 37.6936 50.0967 37.6924L50.1398 37.8036ZM50.1216 37.8218L50.0995 37.8439C50.0887 37.8332 50.0799 37.8201 50.0738 37.8055C50.0656 37.7857 50.0631 37.7645 50.0659 37.7441L50.1216 37.8218Z" fill="#202020"/>
<path fill-rule="evenodd" clip-rule="evenodd" d="M51.2817 35.4593L47.5705 31.7612C46.6363 30.8248 45.119 30.823 44.1821 31.7576L42.052 33.8878C41.9725 33.9674 41.8472 33.9785 41.7552 33.9139C41.7551 33.9138 41.755 33.9138 41.7549 33.9137C40.6027 33.1085 39.5241 32.2028 38.5318 31.2071C38.5317 31.2069 38.5315 31.2068 38.5314 31.2066C37.6426 30.3199 36.825 29.3646 36.0861 28.3495C36.0859 28.3492 36.0857 28.3489 36.0855 28.3487C36.0197 28.259 36.0292 28.1347 36.108 28.0562L38.2873 25.8768C39.221 24.9413 39.221 23.4267 38.2873 22.4912L34.5764 18.7803C34.5752 18.779 34.5739 18.7778 34.5726 18.7765C33.6258 17.8714 32.1345 17.8714 31.1877 18.7765C31.1865 18.7778 31.1852 18.779 31.1839 18.7803L30.009 19.9552C28.1707 21.7732 27.5145 24.4724 28.3133 26.9315C28.3133 26.9318 28.3135 26.9323 28.3137 26.9327C28.8958 28.6901 29.7187 30.3583 30.7586 31.8899C31.6926 33.2902 32.764 34.5937 33.9571 35.7812C35.2542 37.0876 36.691 38.2473 38.2417 39.2397C39.9518 40.3554 41.8295 41.1903 43.8033 41.7128C43.8046 41.7131 43.8059 41.7134 43.8072 41.7137C44.3272 41.842 44.8608 41.9063 45.3962 41.9055C45.3966 41.9055 45.3969 41.9055 45.3973 41.9055C47.2295 41.8943 48.9825 41.1568 50.2718 39.8548L51.2818 38.8448C52.2154 37.9094 52.2154 36.3947 51.2817 35.4593ZM34.4087 18.948L38.1195 22.6588C38.9608 23.5016 38.9608 24.8664 38.1195 25.7092L35.9405 27.8884C35.7787 28.0496 35.7591 28.3049 35.8944 28.4891C36.6406 29.5142 37.4663 30.479 38.3638 31.3745C38.3638 31.3745 38.3639 31.3746 38.3638 31.3745C39.3661 32.3801 40.4554 33.2949 41.619 34.1081C41.8055 34.2388 42.059 34.2165 42.2199 34.0552C42.2197 34.0554 44.3496 31.9255 44.3496 31.9255C45.1938 31.0834 46.5609 31.085 47.4028 31.9289L51.114 35.6269C51.9551 36.4698 51.9551 37.8345 51.114 38.6772L50.1035 39.6877C48.8584 40.9453 47.1654 41.6575 45.3959 41.6684C45.3956 41.6684 45.396 41.6684 45.3959 41.6684C44.8797 41.6692 44.3653 41.6071 43.864 41.4835C41.9144 40.9675 40.0599 40.1428 38.3709 39.0408C38.3706 39.0405 38.3703 39.0404 38.37 39.0402C36.8337 38.0571 35.4102 36.9081 34.125 35.6138C34.1249 35.6137 34.1247 35.6135 34.1246 35.6133C32.9425 34.4368 31.881 33.1453 30.9557 31.7579C30.9555 31.7576 30.9553 31.7573 30.9552 31.7571C29.9273 30.2435 29.1141 28.5949 28.5388 26.8582C28.5387 26.8579 28.5389 26.8584 28.5388 26.8582C27.7677 24.4843 28.4013 21.8786 30.176 20.1235L31.3516 18.948C31.351 18.9486 31.3522 18.9473 31.3516 18.948C32.2067 18.1305 33.5536 18.1305 34.4087 18.948ZM35.0688 34.6694C36.2863 35.8943 37.6348 36.9815 39.0899 37.9115C40.6558 38.9399 42.3761 39.7111 44.1863 40.1957C44.1874 40.196 44.1884 40.1963 44.1895 40.1965C45.9855 40.6245 47.8748 40.0838 49.1722 38.7701L50.0152 37.9272L50.0154 37.9275C50.0376 37.9496 50.0676 37.962 50.0989 37.962C50.0989 37.962 50.1416 37.9684 50.1833 37.9267C50.1862 37.9238 50.2043 37.9057 50.2043 37.9057L50.2042 37.9058C50.2075 37.9026 50.2106 37.8991 50.2136 37.8955L50.2181 37.8917L50.2229 37.8871C50.2281 37.8819 50.2329 37.8762 50.2371 37.87C50.2593 37.8377 50.264 37.7965 50.2498 37.7601L50.233 37.7168C50.5043 37.3869 50.4852 36.8984 50.1761 36.5909C50.1764 36.5912 46.4587 32.8669 46.4587 32.8669V32.867L46.456 32.8643C46.1279 32.5375 45.5971 32.5387 45.2703 32.8667L43.1638 35.0062C43.1635 35.0065 43.1642 35.0059 43.1638 35.0062C42.5503 35.6156 41.5886 35.699 40.8793 35.2043C39.6518 34.3459 38.5028 33.3804 37.446 32.319C37.4459 32.3189 37.4457 32.3188 37.4457 32.3186C36.4978 31.3741 35.6257 30.3564 34.8378 29.2751C34.8378 29.275 34.8377 29.2749 34.8377 29.2749C34.3188 28.565 34.3973 27.5826 35.0223 26.9642L37.2042 24.7823C37.5309 24.4541 37.5297 23.9232 37.2015 23.5964C37.2016 23.5966 33.4907 19.8856 33.4907 19.8856L33.4908 19.8858L33.488 19.883L33.4872 19.8821C33.1589 19.5562 32.6287 19.5577 32.3022 19.8856C32.3023 19.8854 31.1265 21.0613 31.1265 21.0613C29.7006 22.4642 29.1895 24.5522 29.8061 26.455C29.8063 26.4553 29.8064 26.4556 29.8065 26.4559C30.3446 28.0757 31.1045 29.6133 32.0645 31.0247C32.0643 31.0244 32.0646 31.0249 32.0645 31.0247C32.9423 32.3364 33.9486 33.5575 35.0688 34.6694ZM33.3316 20.0555L33.3208 20.0511C33.0854 19.8167 32.7046 19.8175 32.4703 20.053L31.2932 21.2299C29.9311 22.5698 29.4428 24.564 30.0317 26.3816C30.5629 27.9805 31.3129 29.4981 32.2606 30.8913C32.2609 30.8918 32.2612 30.8922 32.2616 30.8927C33.1306 32.1914 34.1269 33.4002 35.2359 34.5011C35.2363 34.5015 35.2367 34.5019 35.2371 34.5022C36.4422 35.7148 37.7771 36.791 39.2177 37.7116C39.2185 37.7122 39.2193 37.7127 39.2201 37.7133C40.7643 38.7275 42.4608 39.4881 44.2466 39.9663C45.9615 40.3742 47.7651 39.8575 49.0038 38.6031L50.0151 37.5918C50.0249 37.5821 50.0359 37.5744 50.0476 37.5688C50.2442 37.3321 50.2312 36.9803 50.0088 36.759L46.2909 33.0345L46.2927 33.0352C46.2909 33.0341 46.2895 33.0331 46.2885 33.0322C46.2877 33.0313 46.2869 33.0304 46.2859 33.0296C46.0504 32.7981 45.6719 32.7998 45.4386 33.034L43.3329 35.1726C43.3322 35.1733 43.3316 35.1739 43.331 35.1745C42.6361 35.8647 41.5469 35.9592 40.7436 35.3988C40.7435 35.3988 40.7435 35.3987 40.7434 35.3986C39.5044 34.5323 38.3448 33.5578 37.2781 32.4865C36.3215 31.5332 35.4413 30.5061 34.6462 29.4148C34.0582 28.6103 34.147 27.4969 34.8552 26.7959L37.0361 24.6149C37.2704 24.3795 37.2695 23.9988 37.0342 23.7645L33.323 20.0533C33.3453 20.0756 33.3754 20.0881 33.4069 20.0881L33.3691 20.0717L33.3214 20.0517L33.3457 20.0616L33.3316 20.0555ZM33.4922 19.8873C33.5155 19.9155 33.4069 20.0881 33.4069 20.0881C33.4548 20.0881 33.4981 20.0591 33.5164 20.0148C33.5344 19.9712 33.525 19.9212 33.4922 19.8873ZM33.3358 20.0572L33.3529 20.0646L33.4044 20.0856L33.3358 20.0572Z" fill="#202020"/>
</g>
<defs>
<clipPath id="clip0_8212_17022">
<rect width="40" height="40" fill="white" transform="translate(20 10)"/>
</clipPath>
</defs>
</svg>
