<svg width="80" height="60" viewBox="0 0 80 60" fill="none" xmlns="http://www.w3.org/2000/svg">
<rect width="80" height="60" rx="30" fill="#F3FEFC"/>
<rect width="80" height="60" rx="30" fill="black" fill-opacity="0.06"/>
<path d="M50.4538 22.5558H20.6567C20.2941 22.5558 20 22.2326 20 21.8336C20 21.4345 20.2941 21.1113 20.6567 21.1113H50.4538C50.817 21.1113 51.1111 21.4345 51.1111 21.8336C51.1111 22.2326 50.817 22.5558 50.4538 22.5558Z" fill="#202020"/>
<path d="M33.3335 19.9991C32.1086 19.9991 31.1113 19.0027 31.1113 17.7769C31.1113 16.5519 32.1086 15.5547 33.3335 15.5547C34.5594 15.5547 35.5558 16.5519 35.5558 17.7769C35.5558 19.0027 34.5594 19.9991 33.3335 19.9991ZM33.3335 16.7678C32.7774 16.7678 32.3244 17.2207 32.3244 17.7769C32.3244 18.3339 32.7774 18.7869 33.3335 18.7869C33.8906 18.7869 34.3435 18.3339 34.3435 17.7769C34.3435 17.2207 33.8906 16.7678 33.3335 16.7678Z" fill="#202020"/>
<path d="M27.7769 19.9991C26.5511 19.9991 25.5547 19.0027 25.5547 17.7769C25.5547 16.5519 26.5511 15.5547 27.7769 15.5547C29.0019 15.5547 29.9991 16.5519 29.9991 17.7769C29.9991 19.0027 29.0019 19.9991 27.7769 19.9991ZM27.7769 16.7678C27.2199 16.7678 26.767 17.2207 26.767 17.7769C26.767 18.3339 27.2199 18.7869 27.7769 18.7869C28.3331 18.7869 28.786 18.3339 28.786 17.7769C28.786 17.2207 28.3331 16.7678 27.7769 16.7678Z" fill="#202020"/>
<path d="M38.8882 19.9991C37.6624 19.9991 36.666 19.0027 36.666 17.7769C36.666 16.5519 37.6624 15.5547 38.8882 15.5547C40.1132 15.5547 41.1105 16.5519 41.1105 17.7769C41.1105 19.0027 40.1132 19.9991 38.8882 19.9991ZM38.8882 16.7678C38.3312 16.7678 37.8783 17.2207 37.8783 17.7769C37.8783 18.3339 38.3312 18.7869 38.8882 18.7869C39.4444 18.7869 39.8973 18.3339 39.8973 17.7769C39.8973 17.2207 39.4444 16.7678 38.8882 16.7678Z" fill="#202020"/>
<path d="M55.1191 46.6671H24.8802C22.1892 46.6671 20 44.4536 20 41.7328V17.1577C20 14.4368 22.1892 12.2227 24.8802 12.2227H55.1191C57.8101 12.2227 60 14.4368 60 17.1577V41.7328C60 44.4536 57.8101 46.6671 55.1191 46.6671ZM24.8802 13.7552C23.0246 13.7552 21.5151 15.2815 21.5151 17.1577V41.7328C21.5151 43.6082 23.0246 45.1345 24.8802 45.1345H55.1191C56.9747 45.1345 58.4842 43.6082 58.4842 41.7328V17.1577C58.4842 15.2815 56.9747 13.7552 55.1191 13.7552H24.8802Z" fill="#202020"/>
<path d="M46.5423 26.8889C46.1922 26.5388 45.6669 26.6263 45.3167 26.9765C44.9665 27.3267 45.054 27.852 45.4042 28.2022L50.3944 32.5796L45.4042 36.9569C45.054 37.3071 44.9665 37.8324 45.3167 38.1826C45.4918 38.3577 45.7544 38.4452 46.0171 38.4452C46.1922 38.4452 46.4548 38.3577 46.6299 38.2702L52.408 33.2799C52.5831 33.1048 52.6707 32.8422 52.6707 32.5796C52.6707 32.3169 52.5831 32.0543 52.408 31.8792L46.5423 26.8889Z" fill="#202020"/>
<path d="M33.9325 26.9765C33.5823 26.6263 33.057 26.5388 32.7068 26.8889L26.9287 31.8792C26.7536 32.0543 26.666 32.3169 26.666 32.5796C26.666 32.8422 26.7536 33.1048 26.9287 33.2799L32.7068 38.2702C32.8819 38.4452 33.057 38.4452 33.3196 38.4452C33.5823 38.4452 33.8449 38.3577 34.02 38.1826C34.3702 37.8324 34.2827 37.3071 33.9325 36.9569L28.9423 32.5796L33.9325 28.2022C34.1951 27.852 34.2827 27.3267 33.9325 26.9765Z" fill="#202020"/>
<path d="M42.7751 26.8031C42.3373 26.5404 41.8121 26.7155 41.5494 27.1533L36.1214 37.1337C35.8588 37.5715 36.0339 38.0967 36.4716 38.3594C36.9094 38.5345 37.3471 38.4469 37.6973 38.0092L43.1253 27.9412C43.3004 27.5035 43.2128 26.9782 42.7751 26.8031Z" fill="#202020"/>
</svg>
