<svg width="40" height="39" viewBox="0 0 40 39" fill="none" xmlns="http://www.w3.org/2000/svg">
<path fill-rule="evenodd" clip-rule="evenodd" d="M23.4322 14.8821C22.6419 15.1116 21.8796 15.4291 21.1615 15.8273L20.4231 15.0848C19.7041 14.3761 18.5363 14.3761 17.8182 15.0848L16.0862 16.8196C15.3802 17.5351 15.3793 18.7029 16.0854 19.4252L16.8314 20.1606H16.8294C16.4291 20.8764 16.1119 21.639 15.8845 22.4286H14.8406C13.8324 22.4354 13.0035 23.259 13 24.2716V26.7284C13.0035 27.7343 13.8324 28.5643 14.8406 28.5643H15.8845C15.8845 28.5643 15.8851 28.5711 15.8845 28.5643C16.1119 29.3543 16.4291 30.1168 16.8294 30.8391L16.0854 31.5751C15.3793 32.2973 15.3802 33.4649 16.0862 34.1804L17.8223 35.9085L17.9504 36.023C18.6715 36.6171 19.748 36.5768 20.4237 35.9152L21.1615 35.1659C21.8796 35.5709 22.6419 35.8881 23.4322 36.1111V37.157C23.4354 38.1629 24.2637 38.9932 25.2722 39H27.7278C28.7363 38.9932 29.5646 38.1629 29.5678 37.157V36.1111C30.3584 35.8881 31.1204 35.5709 31.8385 35.1659L32.5772 35.9152C33.2959 36.6171 34.4637 36.6171 35.1818 35.9085L36.9138 34.1736C37.6198 33.4581 37.6207 32.2906 36.9146 31.5751L36.1706 30.8391C36.5709 30.1168 36.8881 29.3543 37.1158 28.5643H38.1594C39.1676 28.5643 39.9965 27.7343 40 26.7284V24.2716C39.9965 23.259 39.1676 22.4354 38.1594 22.4286H37.1158C36.8881 21.639 36.5709 20.8764 36.1706 20.1606L36.9146 19.4184C37.6207 18.7029 37.6198 17.5351 36.9138 16.8129L35.1745 15.0848L35.0157 14.9431C34.295 14.3829 33.2411 14.43 32.5763 15.0848L31.8385 15.8273C31.1204 15.4291 30.3584 15.1116 29.5678 14.8821V13.8362C29.5646 12.8303 28.7363 12 27.7278 12H25.2722C24.2637 12 23.4354 12.8303 23.4322 13.8362V14.8821ZM28.3413 15.3549V13.8362C28.3413 13.5054 28.0639 13.2218 27.7272 13.2218H25.2728C24.9361 13.2218 24.6587 13.5054 24.6587 13.8362V15.3549C24.6578 15.6382 24.4622 15.8812 24.1868 15.9487H24.1874C23.1971 16.1917 22.251 16.5831 21.3821 17.1165H21.3816C21.1418 17.2582 20.8319 17.2246 20.6296 17.0288L19.553 15.9554C19.4382 15.8409 19.2815 15.7731 19.1174 15.7731C18.9542 15.7731 18.7969 15.8409 18.6829 15.9554L16.9563 17.6903C16.8394 17.7984 16.7734 17.9533 16.7734 18.1221C16.7734 18.2776 16.8388 18.4328 16.9528 18.5474L18.0329 19.6275C18.2279 19.8299 18.2629 20.1406 18.1171 20.3836C18.1171 20.3836 18.105 20.3972 18.1165 20.3836C17.5846 21.2475 17.1911 22.1924 16.9516 23.1847C16.8859 23.4613 16.6391 23.6572 16.356 23.6572H14.8406C14.5039 23.6572 14.2265 23.9341 14.2265 24.2716V26.7284C14.2265 27.0592 14.5039 27.3428 14.8406 27.3428H16.3569C16.6391 27.3428 16.8859 27.5384 16.9516 27.8085C17.1911 28.8008 17.5846 29.7457 18.1171 30.6164C18.1171 30.6164 18.1292 30.6367 18.118 30.6164C18.2623 30.8594 18.2279 31.1634 18.0335 31.3657L16.9563 32.4455C16.8394 32.5604 16.7734 32.7156 16.7734 32.8779C16.7734 33.0399 16.8388 33.2016 16.9563 33.3165L18.6888 35.0378C18.8031 35.1591 18.9583 35.2198 19.1209 35.2198C19.2835 35.2198 19.4387 35.1591 19.553 35.0378L20.629 33.9645C20.745 33.8564 20.9003 33.7889 21.0629 33.7889H21.0643C21.1757 33.7889 21.2858 33.8228 21.381 33.8835H21.3821C22.251 34.4166 23.1965 34.8083 24.1862 35.0446H24.1874C24.4628 35.112 24.6578 35.3615 24.6587 35.6384V37.157C24.6587 37.4946 24.9361 37.7715 25.2728 37.7715H27.7272C28.0639 37.7715 28.3413 37.4946 28.3413 37.157V35.6384C28.3422 35.3615 28.5384 35.112 28.8126 35.0446C29.8029 34.8083 30.7492 34.4166 31.6179 33.8835H31.6184C31.8582 33.735 32.1681 33.7686 32.3704 33.9645L33.447 35.0446C33.5619 35.1591 33.7185 35.2269 33.8826 35.2269C34.0458 35.2269 34.2031 35.1591 34.3171 35.0378L36.0437 33.3097C36.1606 33.1948 36.2266 33.0399 36.2266 32.8779C36.2266 32.7156 36.1612 32.5604 36.0472 32.4455L34.9671 31.3725C34.7721 31.1698 34.7371 30.8594 34.8829 30.6164H34.8835C35.4154 29.7457 35.8089 28.8008 36.0487 27.8085L36.0534 27.7949C36.1241 27.5248 36.3671 27.3428 36.6431 27.3428H38.1594C38.4961 27.3428 38.7735 27.0592 38.7735 26.7284V24.2716C38.7735 23.9341 38.4961 23.6572 38.1594 23.6572H36.6431C36.3609 23.6572 36.1141 23.4613 36.0487 23.1847C35.8089 22.1924 35.4154 21.2475 34.8829 20.3836C34.8944 20.3972 34.8823 20.3768 34.8823 20.3768C34.7377 20.1406 34.7721 19.8299 34.9665 19.6275L36.0437 18.5542C36.1606 18.4328 36.2266 18.2776 36.2266 18.1153C36.2266 17.9533 36.1612 17.7984 36.0457 17.6835L34.3103 15.9554C34.1978 15.8409 34.0417 15.7731 33.8791 15.7731C33.7171 15.7731 33.5624 15.8341 33.4505 15.9487L32.3713 17.0288C32.1692 17.2246 31.8588 17.2582 31.6179 17.1165C31.6279 17.1233 31.6173 17.1165 31.6173 17.1165C30.7492 16.5831 29.8029 16.1917 28.8132 15.9487C28.8185 15.9487 28.812 15.9487 28.812 15.9487C28.5843 15.8948 28.4109 15.7124 28.3581 15.4965C28.3475 15.4494 28.3413 15.402 28.3413 15.3549ZM26.5001 21.4837C24.2834 21.4837 22.4837 23.2793 22.4837 25.5001C22.4837 27.7139 24.2834 29.5163 26.5001 29.5163C28.7166 29.5163 30.5163 27.7139 30.5163 25.5001C30.5163 23.2793 28.7166 21.4837 26.5001 21.4837ZM26.5001 22.7662C28.0088 22.7662 29.2338 23.988 29.2338 25.5001C29.2338 27.0053 28.0088 28.2338 26.5001 28.2338C24.9915 28.2338 23.7662 27.0053 23.7662 25.5001C23.7662 23.988 24.9915 22.7662 26.5001 22.7662Z" fill="#07E1C4"/>
<path fill-rule="evenodd" clip-rule="evenodd" d="M4.05318 3.32482C3.63082 3.69393 3.25143 4.10897 2.92238 4.56168L2.25279 4.31531C1.60498 4.08424 0.883586 4.4201 0.643711 5.06443L0.0727201 6.63391C-0.157737 7.27913 0.177794 8.00058 0.821484 8.24372L1.49372 8.48361L1.49255 8.4842C1.45105 9.04141 1.4743 9.60362 1.56112 10.157L0.916257 10.4569C0.295525 10.7513 0.0203302 11.4984 0.309358 12.1247L1.01574 13.6424C1.30712 14.2626 2.05765 14.5372 2.68074 14.247L3.32531 13.9471C3.32531 13.9471 3.32766 13.9509 3.32531 13.9471C3.69263 14.3695 4.10792 14.7495 4.56295 15.0806L4.31513 15.7491C4.08673 16.3981 4.42285 17.1193 5.06477 17.3583L6.63382 17.9264L6.74596 17.9602C7.36198 18.1201 8.01538 17.7854 8.2426 17.1826L8.48277 16.5073C9.04287 16.5512 9.60474 16.5279 10.1572 16.4382L10.458 17.0845C10.7491 17.7047 11.4996 17.9797 12.1245 17.6939L13.6411 16.9877C14.2621 16.6934 14.5347 15.9422 14.2477 15.3202L13.9469 14.6738C14.371 14.3088 14.7504 13.8938 15.0777 13.4372L15.7494 13.6877C16.3951 13.9147 17.1165 13.5788 17.3561 12.9345L17.9274 11.3647C18.1575 10.7198 17.8223 9.99834 17.1804 9.75933L16.5093 9.51855C16.5491 8.95752 16.5255 8.39501 16.439 7.84163L17.0835 7.54169C17.7063 7.25175 17.9798 6.50057 17.6925 5.87831L16.9861 4.36064C16.693 3.73603 15.9442 3.46581 15.3194 3.75163L14.6748 4.05157C14.3072 3.62918 13.8919 3.24917 13.4389 2.92244L13.685 2.24985C13.9154 1.60492 13.579 0.883764 12.9353 0.64063L11.3639 0.0734159L11.2253 0.0313235C10.619 -0.107316 9.98177 0.224712 9.75926 0.820479L9.51703 1.4913C8.95899 1.45186 8.39712 1.47482 7.84291 1.56048L7.54211 0.914376C7.25073 0.293885 6.50049 0.0192552 5.8777 0.309191L4.36075 1.01534C3.73795 1.30527 3.46511 2.05646 3.75238 2.67872L4.05318 3.32482ZM7.22129 2.20511L6.78452 1.26701C6.68945 1.06273 6.43662 0.96736 6.22854 1.0642L4.71246 1.76976C4.50438 1.8666 4.41461 2.1218 4.50968 2.32608L4.94645 3.26418C5.02769 3.43932 4.97647 3.64566 4.82578 3.76664L4.82637 3.76634C4.28452 4.20139 3.81242 4.71533 3.42921 5.29461H3.42891C3.32178 5.45121 3.12046 5.5195 2.93915 5.4568L1.96553 5.10329C1.86163 5.06561 1.74567 5.06885 1.64412 5.11594C1.54346 5.16304 1.46576 5.24987 1.42809 5.35348L0.860629 6.92179C0.819424 7.02186 0.82325 7.13696 0.871814 7.24116C0.916551 7.33711 1.00161 7.41423 1.10492 7.45221L2.08237 7.80867C2.26132 7.87784 2.37228 8.05945 2.35198 8.25166C2.35198 8.25166 2.34844 8.26344 2.35168 8.25166C2.27162 8.93839 2.30017 9.63511 2.43762 10.3171C2.47648 10.5067 2.38023 10.6989 2.2057 10.7801L1.26974 11.2158C1.06165 11.3126 0.969824 11.5634 1.06695 11.7721L1.77333 13.2898C1.8684 13.4941 2.12122 13.5894 2.32931 13.4926L3.26586 13.0566C3.4401 12.9754 3.64877 13.0252 3.76709 13.1732C4.20034 13.7172 4.71511 14.1878 5.29435 14.5726C5.29435 14.5726 5.30759 14.5817 5.29464 14.5723C5.45387 14.6809 5.52009 14.8784 5.45799 15.0594L5.10333 16.0364C5.06418 16.1409 5.06801 16.2557 5.11451 16.3557C5.16102 16.4558 5.24814 16.5371 5.3538 16.5741L6.91873 17.1393C7.0241 17.1814 7.13771 17.1743 7.23807 17.1275C7.33844 17.0807 7.41702 16.9986 7.45234 16.8909L7.80847 15.9183C7.84909 15.8182 7.92562 15.732 8.02598 15.6852L8.02686 15.6849C8.09573 15.6528 8.17344 15.6419 8.24967 15.6522L8.25055 15.6516C8.94045 15.7314 9.63712 15.7014 10.3161 15.5628L10.317 15.5622C10.5066 15.5248 10.6987 15.6228 10.7788 15.7935L11.2156 16.7319C11.3124 16.9403 11.5635 17.0316 11.7716 16.9347L13.2873 16.2289C13.4954 16.132 13.5873 15.8812 13.4901 15.6728L13.0536 14.7344C12.9745 14.5634 13.0239 14.3527 13.1737 14.2323C13.7173 13.8017 14.1894 13.2877 14.5727 12.7084L14.573 12.7081C14.6783 12.5474 14.8793 12.4791 15.0606 12.5418L16.0363 12.8995C16.1402 12.9374 16.2562 12.9342 16.3577 12.8868C16.4584 12.84 16.5361 12.7529 16.5717 12.6451L17.1412 11.0813C17.1804 10.9768 17.1768 10.862 17.1301 10.7619C17.0835 10.6618 16.9985 10.5847 16.8949 10.5464L15.9195 10.1941C15.7405 10.1252 15.6296 9.9433 15.6499 9.75138L15.6502 9.75109C15.7285 9.06025 15.6999 8.36352 15.5625 7.6818L15.5616 7.67209C15.5277 7.48488 15.6255 7.30238 15.7959 7.22291L16.7324 6.78697C16.9402 6.69013 17.0303 6.43522 16.9349 6.23094L16.2285 4.71327C16.1317 4.50487 15.8806 4.41362 15.6726 4.51046L14.7363 4.9464C14.5618 5.02734 14.3531 4.9776 14.233 4.82542C13.7998 4.28146 13.285 3.81079 12.7075 3.43049C12.7184 3.43549 12.7052 3.42637 12.7052 3.42637C12.548 3.32187 12.48 3.12024 12.5418 2.93922L12.8985 1.96668C12.9359 1.85807 12.9321 1.74297 12.8856 1.6429C12.8388 1.54282 12.7537 1.4657 12.6495 1.42802L11.0808 0.859627C10.9781 0.821362 10.8624 0.824305 10.762 0.871107C10.662 0.917615 10.584 0.999738 10.5478 1.10276L10.1916 2.0803C10.123 2.25927 9.94115 2.36935 9.75161 2.3511C9.75956 2.35228 9.75102 2.3514 9.75102 2.3514C9.06171 2.27163 8.36445 2.30195 7.68338 2.43617C7.68662 2.4347 7.6825 2.43676 7.6825 2.43676C7.52651 2.46884 7.36699 2.40615 7.27251 2.28782C7.2522 2.26162 7.23483 2.23425 7.22129 2.20511ZM7.84615 6.52059C6.47695 7.15785 5.88182 8.78473 6.52021 10.1564C7.15684 11.524 8.78652 12.1197 10.1557 11.4825C11.5249 10.8449 12.1183 9.21419 11.4817 7.84664C10.8433 6.47467 9.21535 5.88302 7.84615 6.52059ZM8.21494 7.31268C9.14677 6.8791 10.2546 7.28148 10.6896 8.21546C11.1223 9.14531 10.7188 10.2562 9.78693 10.6901C8.85509 11.1239 7.74519 10.7174 7.31254 9.78759C6.87782 8.85361 7.2831 7.74656 8.21494 7.31268Z" fill="#07E1C4"/>
</svg>
