<svg width="80" height="60" viewBox="0 0 80 60" fill="none" xmlns="http://www.w3.org/2000/svg">
<rect width="80" height="60" rx="30" fill="#F3FEFC"/>
<rect width="80" height="60" rx="30" fill="black" fill-opacity="0.06"/>
<path d="M55.6568 27.3645V25.4545C55.6568 16.9327 48.7241 10 40.2022 10C31.6804 10 24.7477 16.9327 24.7477 25.4545V27.3645C22.6754 27.7868 21.1113 29.6232 21.1113 31.8182V36.8182C21.1113 39.3245 23.1504 41.3636 25.6568 41.3636H29.2931C30.2959 41.3636 31.1113 40.5482 31.1113 39.5455V29.0909C31.1113 28.0882 30.2959 27.2727 29.2931 27.2727H26.5659V25.4545C26.5659 22.7205 27.3777 20.1736 28.7691 18.0368L29.1977 18.4659C29.7163 18.9845 30.4031 19.2691 31.135 19.2691H31.15C31.8745 19.2655 32.5509 18.98 33.0541 18.465C34.9513 16.5241 37.49 15.4545 40.2022 15.4545C42.9145 15.4545 45.4531 16.5241 47.3509 18.4655C47.8536 18.98 48.5304 19.2655 49.2545 19.2691H49.2695C50.0009 19.2691 50.6886 18.9841 51.2068 18.4659L51.6354 18.0368C53.0268 20.1736 53.8386 22.7205 53.8386 25.4545V27.2727H51.1113C50.1086 27.2727 49.2931 28.0882 49.2931 29.0909V39.5455C49.2931 40.5482 50.1086 41.3636 51.1113 41.3636H53.8386V43.1818C53.8386 44.6859 52.6154 45.9091 51.1113 45.9091H44.1591C43.7668 44.5964 42.5495 43.6364 41.1113 43.6364H39.2931C37.5391 43.6364 36.1113 45.0641 36.1113 46.8182C36.1113 48.5723 37.5391 50 39.2931 50H41.1113C42.5495 50 43.7668 49.0395 44.1591 47.7273H51.1113C53.6177 47.7273 55.6568 45.6882 55.6568 43.1818V41.2718C57.7291 40.8495 59.2931 39.0127 59.2931 36.8182V31.8182C59.2931 29.6232 57.7291 27.7868 55.6568 27.3645ZM29.2945 39.5455H25.6568C24.1527 39.5455 22.9295 38.3223 22.9295 36.8182V31.8182C22.9295 30.3141 24.1527 29.0909 25.6568 29.0909H29.2931L29.2945 39.5455ZM49.9204 17.1805C49.7463 17.355 49.515 17.4509 49.2691 17.4509C49.2672 17.4509 49.2654 17.4509 49.2641 17.4509C49.0286 17.45 48.8109 17.3586 48.6504 17.195C46.4086 14.9 43.4081 13.6364 40.2022 13.6364C36.9963 13.6364 33.9959 14.9 31.7541 17.1941C31.5931 17.3582 31.3754 17.4495 31.14 17.4505C31.1386 17.4505 31.1368 17.4505 31.135 17.4505C30.8891 17.4505 30.6577 17.3545 30.4836 17.18L29.8718 16.5677C32.375 13.6627 36.0759 11.8182 40.2022 11.8182C44.3286 11.8182 48.0295 13.6627 50.5322 16.5682L49.9204 17.1805ZM41.1113 48.1818H39.2931C38.5413 48.1818 37.9295 47.57 37.9295 46.8182C37.9295 46.0664 38.5413 45.4545 39.2931 45.4545H41.1113C41.8631 45.4545 42.475 46.0664 42.475 46.8182C42.475 47.57 41.8631 48.1818 41.1113 48.1818ZM57.475 36.8182C57.475 38.3223 56.2518 39.5455 54.7477 39.5455H51.1113V29.0909H54.7477C56.2518 29.0909 57.475 30.3141 57.475 31.8182V36.8182Z" fill="#202020"/>
</svg>
