<svg width="60" height="60" viewBox="0 0 60 60" fill="none" xmlns="http://www.w3.org/2000/svg">
<path d="M27.656 57.6562C25.3297 57.6562 23.4373 55.7637 23.4373 53.4375V49.4675L23.126 49.3566C20.7797 48.5198 18.6146 47.2632 16.6911 45.6218L16.4393 45.4069L12.9837 47.4021C12.3423 47.7724 11.6143 47.9682 10.8786 47.9682C9.37394 47.9682 7.97226 47.1597 7.22062 45.8579L4.87687 41.7984C3.71391 39.7841 4.4066 37.1988 6.42117 36.0355L9.81504 34.0761L9.7548 33.7505C9.4991 32.3691 9.37476 31.1425 9.37476 30C9.37476 28.8574 9.4991 27.6306 9.75469 26.2495L9.81492 25.9239L6.42105 23.9644C4.4066 22.8013 3.71379 20.2161 4.87676 18.2014L7.22051 14.142C7.97215 12.8405 9.37394 12.0319 10.8787 12.0319C11.6143 12.0319 12.3422 12.2276 12.9836 12.5978L16.4393 14.5929L16.6911 14.3781C18.6158 12.7363 20.7807 11.4798 23.1259 10.6436L23.4373 10.5325V6.5625C23.4373 4.23633 25.3297 2.34375 27.656 2.34375H32.3435C34.6698 2.34375 36.5623 4.23633 36.5623 6.5625V10.5325L36.8735 10.6434C39.2187 11.4797 41.3836 12.7362 43.3083 14.378L43.5601 14.5928L47.0159 12.5977C47.6572 12.2275 48.3851 12.0318 49.1207 12.0318C50.6255 12.0318 52.0273 12.8404 52.7789 14.142L55.1227 18.2014C56.2856 20.2161 55.5929 22.8013 53.5784 23.9644L50.1845 25.9239L50.2447 26.2495C50.5004 27.6306 50.6248 28.8574 50.6248 30C50.6248 31.1425 50.5004 32.3691 50.2448 33.7501L50.1846 34.0758L53.5785 36.0353C55.5929 37.1986 56.2857 39.7839 55.1228 41.7982L52.779 45.8577C52.0274 47.1593 50.6258 47.968 49.1214 47.968C49.1214 47.968 49.1212 47.968 49.121 47.968C48.3852 47.968 47.6572 47.7722 47.016 47.4019L43.5604 45.4066L43.3085 45.6216C41.385 47.2631 39.22 48.5196 36.8736 49.3563L36.5623 49.4675V53.4375C36.5623 55.7637 34.6698 57.6562 32.3435 57.6562H27.656Z" stroke="#00E0B4" stroke-width="1.5" stroke-miterlimit="10" stroke-linecap="round" stroke-linejoin="round"/>
<path d="M30 39.375C35.1777 39.375 39.375 35.1777 39.375 30C39.375 24.8223 35.1777 20.625 30 20.625C24.8223 20.625 20.625 24.8223 20.625 30C20.625 35.1777 24.8223 39.375 30 39.375Z" stroke="#00E0B4" stroke-width="1.5" stroke-miterlimit="10" stroke-linecap="round" stroke-linejoin="round"/>
</svg>
