<svg width="80" height="60" viewBox="0 0 80 60" fill="none" xmlns="http://www.w3.org/2000/svg">
<rect width="80" height="60" rx="30" fill="#08DBBA"/>
<path d="M33.5781 10.25H46.4189C50.4073 10.2501 53.6532 13.4951 53.6533 17.4834C53.6533 20.0094 52.3512 22.2382 50.3809 23.5332L50.0625 23.7422L50.3809 23.9512C52.3511 25.2454 53.6533 27.474 53.6533 30C53.6533 33.9884 50.4074 37.2333 46.4189 37.2334H46.2559C44.3849 37.2333 42.678 36.52 41.3926 35.3486L40.9746 34.9678V42.4355C40.9744 46.467 37.6749 49.7499 33.6182 49.75C29.6066 49.75 26.3439 46.5037 26.3438 42.5166C26.3438 39.9905 27.646 37.7611 29.6162 36.4678L29.9346 36.2588L29.6162 36.0498C27.6458 34.7548 26.3438 32.5261 26.3438 30C26.3438 27.4739 27.6459 25.2453 29.6162 23.9512L29.9346 23.7422L29.6162 23.5332C27.6458 22.2382 26.3438 20.0095 26.3438 17.4834C26.3439 13.6198 29.3898 10.4541 33.2061 10.2598L33.5781 10.25ZM33.5781 37.2334C30.6651 37.2334 28.2949 39.6035 28.2949 42.5166C28.295 45.4315 30.6852 47.7988 33.6182 47.7988C36.5963 47.7987 39.0222 45.3948 39.0225 42.4355V37.2334H33.5781ZM33.5781 24.7178C30.6651 24.7178 28.2949 27.0869 28.2949 30C28.2949 32.9016 30.6474 35.2652 33.5449 35.2832H39.0225V24.7178H33.5781ZM46.2559 24.7178C43.343 24.718 40.9746 27.0871 40.9746 30C40.9746 32.9129 43.3429 35.283 46.2559 35.2832H46.4189C49.3319 35.2831 51.7012 32.913 51.7012 30C51.7012 27.0869 49.3319 24.7179 46.4189 24.7178H46.2559ZM33.5781 12.2012C30.6652 12.2012 28.295 14.5704 28.2949 17.4834C28.2949 20.3965 30.6651 22.7666 33.5781 22.7666H39.0225V12.2012H33.5781ZM40.9746 22.7666H46.4189C49.3319 22.7665 51.7012 20.3964 51.7012 17.4834C51.7011 14.5704 49.3318 12.2013 46.4189 12.2012H40.9746V22.7666Z" fill="black" stroke="#08DBBA" stroke-width="0.5"/>
</svg>
