<svg width="80" height="60" viewBox="0 0 80 60" fill="none" xmlns="http://www.w3.org/2000/svg">
<rect width="80" height="60" rx="30" fill="#08DBBA"/>
<path d="M35.3125 23.75V36.25" stroke="black" stroke-width="1.5" stroke-miterlimit="10" stroke-linecap="round" stroke-linejoin="round"/>
<path d="M44.6875 23.75V36.25" stroke="black" stroke-width="1.5" stroke-miterlimit="10" stroke-linecap="round" stroke-linejoin="round"/>
<path d="M32.1875 26.875H38.4375" stroke="black" stroke-width="1.5" stroke-miterlimit="10" stroke-linecap="round" stroke-linejoin="round"/>
<path d="M41.5625 33.125H47.8125" stroke="black" stroke-width="1.5" stroke-miterlimit="10" stroke-linecap="round" stroke-linejoin="round"/>
<path d="M57.0203 38.0217C57.8831 36.5271 57.371 34.6159 55.8764 33.7529L55.5995 33.593C54.5738 33.0008 53.971 31.8786 54.0421 30.6964C54.056 30.466 54.0635 30.2339 54.0635 30C54.0635 29.766 54.056 29.5338 54.0421 29.3034C53.971 28.1222 54.5746 26.9985 55.5995 26.4068L55.8764 26.2469C57.371 25.384 57.8831 23.4728 57.0203 21.978L55.4578 19.2717C54.5947 17.7771 52.6835 17.265 51.1889 18.1279L50.8535 18.3215C49.8354 18.9093 48.5727 18.8755 47.5867 18.2352C47.1983 17.983 46.797 17.7497 46.3834 17.5364C45.3442 17.0007 44.6885 15.9264 44.6885 14.7573V14.6875C44.6885 12.9616 43.2894 11.5625 41.5635 11.5625H38.4385C36.7125 11.5625 35.3135 12.9616 35.3135 14.6875V14.7572C35.3135 15.9275 34.6587 17.0002 33.6185 17.5365C33.2049 17.7498 32.8036 17.983 32.4153 18.2352C31.4302 18.8749 30.1656 18.9088 29.1485 18.3216L28.8131 18.1279C27.3185 17.265 25.4073 17.7771 24.5442 19.2717L22.9817 21.978C22.1188 23.4728 22.631 25.384 24.1256 26.2469L24.4025 26.4068C25.4282 26.999 26.031 28.1212 25.9599 29.3034C25.946 29.5338 25.9385 29.766 25.9385 30C25.9385 30.234 25.9459 30.466 25.9598 30.6964C26.0309 31.8777 25.4273 33.0013 24.4024 33.593L24.1255 33.7529C22.6309 34.6159 22.1188 36.5271 22.9817 38.0217L24.5442 40.728C25.4072 42.2228 27.3184 42.7349 28.813 41.8719L29.148 41.6784C30.1661 41.0906 31.429 41.1244 32.4149 41.7647C32.8034 42.0169 33.2047 42.2502 33.6184 42.4634C34.6576 42.9992 35.3135 44.0736 35.3135 45.2427V45.3125C35.3135 47.0383 36.7125 48.4375 38.4385 48.4375H41.5635C43.2894 48.4375 44.6885 47.0383 44.6885 45.3125V45.2429C44.6885 44.0726 45.3433 42.9998 46.3835 42.4635C46.7971 42.2502 47.1985 42.017 47.5869 41.7648C48.572 41.1251 49.8367 41.0912 50.8538 41.6785L51.1889 41.872C52.6835 42.735 54.5947 42.2229 55.4578 40.7281L57.0203 38.0217Z" stroke="black" stroke-width="1.5" stroke-miterlimit="10" stroke-linecap="round" stroke-linejoin="round"/>
</svg>
