<svg width="80" height="60" viewBox="0 0 80 60" fill="none" xmlns="http://www.w3.org/2000/svg">
<rect width="80" height="60" rx="30" fill="#08DBBA"/>
<path d="M48.334 31.6673H40.0007V23.334M28.334 15.834L31.6673 13.334M51.6673 15.834L48.334 13.334" stroke="black" stroke-width="2" stroke-linecap="round" stroke-linejoin="round"/>
<path d="M40 46.668C41.9698 46.668 43.9204 46.28 45.7403 45.5262C47.5601 44.7723 49.2137 43.6674 50.6066 42.2746C51.9995 40.8817 53.1044 39.2281 53.8582 37.4082C54.612 35.5883 55 33.6378 55 31.668C55 29.6981 54.612 27.7476 53.8582 25.9277C53.1044 24.1078 51.9995 22.4542 50.6066 21.0614C49.2137 19.6685 47.5601 18.5636 45.7403 17.8098C43.9204 17.056 41.9698 16.668 40 16.668C36.0218 16.668 32.2064 18.2483 29.3934 21.0614C26.5804 23.8744 25 27.6897 25 31.668C25 35.6462 26.5804 39.4615 29.3934 42.2746C32.2064 45.0876 36.0218 46.668 40 46.668Z" stroke="black" stroke-width="2" stroke-linecap="round" stroke-linejoin="round"/>
</svg>
