<svg width="80" height="60" viewBox="0 0 80 60" fill="none" xmlns="http://www.w3.org/2000/svg">
<rect width="80" height="60" rx="30" fill="#F3FEFC"/>
<rect width="80" height="60" rx="30" fill="black" fill-opacity="0.06"/>
<g clip-path="url(#clip0_8115_17133)">
<path d="M20.3125 18.4859V18.4559C20.3125 14.0248 23.9176 10.4199 28.3488 10.4199C32.7798 10.4199 36.3849 14.0249 36.3849 18.456C36.3849 20.0623 35.9491 21.6401 35.1245 23.0186L29.8054 31.9115H36.3848C38.6208 31.9115 40.44 33.7307 40.44 35.9666C40.44 38.2027 38.6208 40.0219 36.3848 40.0219H25.7926C24.3723 40.0219 23.2166 41.1775 23.2166 42.5978C23.2166 44.0182 24.3723 45.1738 25.7926 45.1738H42.6008L42.6551 44.9291C42.9566 43.5709 43.982 42.483 45.3045 42.0921L45.5285 42.0259V24.6241C45.5285 24.3393 45.6697 24.073 45.9055 23.9135C46.1413 23.7539 46.4409 23.7217 46.7054 23.8274C46.738 23.8404 59.137 28.8001 59.1481 28.8045C59.4622 28.9302 59.6733 29.2287 59.6868 29.5668V29.5669C59.7004 29.905 59.5139 30.2195 59.2108 30.3701L47.2447 36.3096V42.0264L47.4685 42.0927C49.0505 42.5608 50.2084 44.0262 50.2084 45.7579C50.2084 47.8655 48.4937 49.5802 46.3859 49.5802C44.7478 49.5802 43.3476 48.5441 42.8047 47.093L42.7288 46.8901H25.7926C23.4259 46.8901 21.5004 44.9645 21.5004 42.5978C21.5004 40.2312 23.4259 38.3056 25.7926 38.3056H36.3848C37.6747 38.3056 38.7239 37.2564 38.7239 35.9666C38.7239 34.6768 37.6747 33.6276 36.3848 33.6276H28.2873C27.9413 33.6297 27.6904 33.4231 27.5516 33.2027C27.5507 33.2012 21.5416 22.9956 21.5416 22.9956C20.7375 21.6301 20.3125 20.0706 20.3125 18.4859ZM46.387 43.6519L46.3822 43.6517C45.2224 43.6539 44.2798 44.5978 44.2798 45.7578C44.2798 46.9191 45.2248 47.864 46.3859 47.864C47.5472 47.864 48.4921 46.9192 48.4921 45.7578C48.4921 44.598 47.5501 43.6545 46.3912 43.6518L46.387 43.6519ZM47.2447 25.8915V34.3935L56.7296 29.6855L47.2447 25.8915ZM22.0287 18.4858L22.0286 18.4857C22.0286 19.7645 22.3716 21.0228 23.0204 22.1248L28.298 31.0882L33.6516 22.1376C34.317 21.0251 34.6687 19.752 34.6687 18.4559C34.6687 14.9711 31.8336 12.1359 28.3487 12.1359C24.8637 12.1359 22.0286 14.9711 22.0286 18.4559L22.3411 18.7684L22.0286 18.4567L22.0287 18.4858ZM31.6835 18.6005C31.6835 20.4704 30.1622 21.9917 28.2922 21.9917C26.4223 21.9917 24.9009 20.4704 24.9009 18.6005C24.9009 16.7305 26.4223 15.2092 28.2923 15.2092C30.1623 15.2092 31.6835 16.7305 31.6835 18.6005ZM28.2922 20.2756C29.2159 20.2756 29.9673 19.5242 29.9673 18.6005C29.9673 17.6767 29.2159 16.9253 28.2922 16.9253C27.3685 16.9253 26.617 17.6767 26.617 18.6005C26.617 19.5242 27.3685 20.2756 28.2922 20.2756Z" fill="#202020"/>
</g>
<defs>
<clipPath id="clip0_8115_17133">
<rect width="40" height="40" fill="white" transform="translate(20 10)"/>
</clipPath>
</defs>
</svg>
