<svg width="80" height="60" viewBox="0 0 80 60" fill="none" xmlns="http://www.w3.org/2000/svg">
<rect width="80" height="60" rx="30" fill="#F3FEFC"/>
<rect width="80" height="60" rx="30" fill="black" fill-opacity="0.06"/>
<path fill-rule="evenodd" clip-rule="evenodd" d="M27.4964 30.5879H20.7809C20.4252 30.5879 20.1367 30.8763 20.1367 31.2321V42.1642C20.1367 42.5201 20.4252 42.8085 20.7809 42.8085H27.4964C27.8522 42.8085 28.1406 42.5201 28.1406 42.1642V41.2586C30.7898 41.358 32.5367 42.0631 34.285 42.7624C36.3032 43.5697 38.3229 44.3702 41.5521 44.3702C43.1252 44.3702 45.4405 43.7701 47.8517 42.9403C48.188 42.8247 48.367 42.4578 48.2513 42.1216C48.1356 41.7854 47.7687 41.6064 47.4325 41.7221C45.1796 42.4973 43.0219 43.0818 41.5521 43.0818C38.5343 43.0818 36.6496 42.3206 34.7635 41.5661C32.883 40.8139 31.001 40.0676 28.1406 39.9692V31.7907C28.8025 31.6293 29.5364 31.2639 30.3587 30.9092C31.7166 30.3235 33.3888 29.8196 35.5477 31.0338L39.3176 33.1546C39.6482 33.3409 40.02 33.438 40.3995 33.438H45.4564C46.3945 33.438 47.1548 34.1984 47.1548 35.1364C47.1548 35.8575 46.7056 36.4734 46.0717 36.7191C46.071 36.7193 46.0703 36.7196 46.0696 36.7199C45.8793 36.7944 45.6726 36.8348 45.4564 36.8348H37.5181C37.1625 36.8348 36.8739 37.1235 36.8739 37.479C36.8739 37.8346 37.1625 38.1232 37.5181 38.1232H45.4564C45.8262 38.1232 46.1801 38.0557 46.5073 37.932C46.5142 37.9297 46.521 37.9273 46.5278 37.9248L56.2324 34.3375C56.2357 34.3362 56.239 34.335 56.2424 34.3337C56.4332 34.2595 56.6403 34.2189 56.8571 34.2189C57.7952 34.2189 58.5555 34.9792 58.5555 35.9173C58.5555 36.5956 58.1581 37.1809 57.5835 37.4534C57.4874 37.4987 53.1491 39.5399 51.0389 40.4687C50.7134 40.6119 50.5655 40.9924 50.7087 41.3178C50.852 41.6432 51.2324 41.7911 51.5579 41.6479C53.6878 40.7105 58.0773 38.6451 58.1333 38.6187C58.1338 38.6185 58.1343 38.6182 58.1348 38.6179C59.1452 38.1392 59.8439 37.1098 59.8439 35.9173C59.8439 34.2676 58.5068 32.9305 56.8571 32.9305C56.4776 32.9305 56.1149 33.0016 55.7805 33.1309L48.3506 35.8773C48.411 35.6406 48.4432 35.3922 48.4432 35.1364C48.4432 33.4867 47.1061 32.1496 45.4564 32.1496H40.3995C40.2417 32.1496 40.0872 32.1094 39.9497 32.0319L36.1793 29.9108C33.545 28.4292 31.5054 29.0114 29.8485 29.7261C28.9373 30.1191 28.1783 30.5879 27.4964 30.5879ZM26.8522 40.6025V41.52H21.4252V31.8763H26.8522C26.8522 33.9935 26.8522 40.6025 26.8522 40.6025Z" fill="#202020"/>
<path d="M24.2855 23.6351L21.8398 16.2559H23.263L25.4451 22.9288H24.7388L27.0053 16.2559H28.2703L30.4735 22.9288H29.7883L32.0232 16.2559H33.3303L30.8846 23.6351H29.4299L27.4164 17.6157H27.7959L25.7508 23.6351H24.2855Z" fill="#202020"/>
<path d="M36.3461 23.6351L33.9004 16.2559H35.3235L37.5057 22.9288H36.7994L39.0658 16.2559H40.3308L42.5341 22.9288H41.8489L44.0837 16.2559H45.3909L42.9452 23.6351H41.4904L39.477 17.6157H39.8565L37.8114 23.6351H36.3461Z" fill="#202020"/>
<path d="M48.4047 23.6351L45.959 16.2559H47.3821L49.5643 22.9288H48.858L51.1244 16.2559H52.3894L54.5927 22.9288H53.9074L56.1423 16.2559H57.4495L55.0038 23.6351H53.549L51.5356 17.6157H51.9151L49.87 23.6351H48.4047Z" fill="#202020"/>
</svg>
