<svg width="80" height="60" viewBox="0 0 80 60" fill="none" xmlns="http://www.w3.org/2000/svg">
<rect width="80" height="60" rx="30" fill="#F3FEFC"/>
<rect width="80" height="60" rx="30" fill="black" fill-opacity="0.06"/>
<g clip-path="url(#clip0_8115_17167)">
<path fill-rule="evenodd" clip-rule="evenodd" d="M53.3834 12.6591H44.5626C42.7935 12.6591 41.3595 14.0931 41.3595 15.8622V30.248C41.3595 31.0679 40.6949 31.7324 39.8751 31.7324H25.8667C24.0977 31.7324 22.6636 33.1665 22.6636 34.9355V43.392C21.3082 43.7675 20.3125 45.0096 20.3125 46.4816C20.3125 48.2505 21.7506 49.6875 23.523 49.6875C25.2953 49.6875 26.7334 48.2505 26.7334 46.4816C26.7334 45.0096 25.7377 43.7675 24.3823 43.392V34.9355C24.3823 34.1157 25.0469 33.4512 25.8667 33.4512H39.8751C41.6441 33.4512 43.0782 32.0171 43.0782 30.248V15.8622C43.0782 15.0423 43.7427 14.3778 44.5626 14.3778H53.3834C53.7598 15.7302 55.0028 16.7244 56.477 16.7244C58.2494 16.7244 59.6875 15.2874 59.6875 13.5184C59.6875 11.7495 58.2494 10.3125 56.477 10.3125C55.0028 10.3125 53.7598 11.3067 53.3834 12.6591ZM55.6852 46.9005L54.3652 48.2205C54.0298 48.5559 54.0298 49.1004 54.3652 49.4358C54.7005 49.7712 55.2451 49.7712 55.5805 49.4358L56.9005 48.1158L58.2205 49.4358C58.5559 49.7712 59.1004 49.7712 59.4358 49.4358C59.7712 49.1004 59.7712 48.5559 59.4358 48.2205L58.1158 46.9005L59.4358 45.5805C59.7712 45.2451 59.7712 44.7006 59.4358 44.3652C59.1004 44.0298 58.5559 44.0298 58.2205 44.3652L56.9005 45.6852L55.5805 44.3652C55.2451 44.0298 54.7005 44.0298 54.3652 44.3652C54.0298 44.7006 54.0298 45.2451 54.3652 45.5805L55.6852 46.9005ZM23.523 44.9944C24.3458 44.9944 25.0147 45.6603 25.0147 46.4816C25.0147 47.3028 24.3458 47.9688 23.523 47.9688C22.7002 47.9688 22.0312 47.3028 22.0312 46.4816C22.0312 45.6603 22.7002 44.9944 23.523 44.9944ZM39.4155 39.207L38.0955 40.527C37.7602 40.8624 37.7602 41.407 38.0955 41.7423C38.4309 42.0777 38.9755 42.0777 39.3109 41.7423L40.6309 40.4223L41.9509 41.7423C42.2863 42.0777 42.8308 42.0777 43.1662 41.7423C43.5016 41.407 43.5016 40.8624 43.1662 40.527L41.8462 39.207L43.1662 37.887C43.5016 37.5516 43.5016 37.007 43.1662 36.6716C42.8308 36.3363 42.2863 36.3363 41.9509 36.6716L40.6309 37.9916L39.3109 36.6716C38.9755 36.3363 38.4309 36.3363 38.0955 36.6716C37.7602 37.007 37.7602 37.5516 38.0955 37.887L39.4155 39.207ZM48.0093 39.207L46.6893 40.527C46.3539 40.8624 46.3539 41.407 46.6893 41.7423C47.0247 42.0777 47.5692 42.0777 47.9046 41.7423L49.2246 40.4223L50.5446 41.7423C50.88 42.0777 51.4245 42.0777 51.7599 41.7423C52.0953 41.407 52.0953 40.8624 51.7599 40.527L50.4399 39.207L51.7599 37.887C52.0953 37.5516 52.0953 37.007 51.7599 36.6716C51.4245 36.3363 50.88 36.3363 50.5446 36.6716L49.2246 37.9916L47.9046 36.6716C47.5692 36.3363 47.0247 36.3363 46.6893 36.6716C46.3539 37.007 46.3539 37.5516 46.6893 37.887L48.0093 39.207ZM48.0093 30.6914L46.6893 32.0114C46.3539 32.3468 46.3539 32.8914 46.6893 33.2267C47.0247 33.5621 47.5692 33.5621 47.9046 33.2267L49.2246 31.9067L50.5446 33.2267C50.88 33.5621 51.4245 33.5621 51.7599 33.2267C52.0953 32.8914 52.0953 32.3468 51.7599 32.0114L50.4399 30.6914L51.7599 29.3713C52.0953 29.0359 52.0953 28.4914 51.7599 28.156C51.4245 27.8206 50.88 27.8206 50.5446 28.156L49.2246 29.476L47.9046 28.156C47.5692 27.8206 47.0247 27.8206 46.6893 28.156C46.3539 28.4914 46.3539 29.0359 46.6893 29.3713L48.0093 30.6914ZM35.2207 24.488L33.9007 23.168C33.5653 22.8326 33.0208 22.8326 32.6854 23.168C32.35 23.5034 32.35 24.0479 32.6854 24.3833L34.0054 25.7033L32.6854 27.0233C32.35 27.3587 32.35 27.9032 32.6854 28.2386C33.0208 28.574 33.5653 28.574 33.9007 28.2386L35.2207 26.9186L36.5407 28.2386C36.8761 28.574 37.4206 28.574 37.756 28.2386C38.0914 27.9032 38.0914 27.3587 37.756 27.0233L36.436 25.7033L37.756 24.3833C38.0914 24.0479 38.0914 23.5034 37.756 23.168C37.4206 22.8326 36.8761 22.8326 36.5407 23.168L35.2207 24.488ZM56.9005 20.8823L55.5805 19.5623C55.2451 19.2269 54.7005 19.2269 54.3652 19.5623C54.0298 19.8977 54.0298 20.4422 54.3652 20.7776L55.6852 22.0977L54.3652 23.4177C54.0298 23.753 54.0298 24.2977 54.3652 24.633C54.7005 24.9684 55.2451 24.9684 55.5805 24.633L56.9005 23.313L58.2205 24.633C58.5559 24.9684 59.1004 24.9684 59.4358 24.633C59.7712 24.2977 59.7712 23.753 59.4358 23.4177L58.1158 22.0977L59.4358 20.7776C59.7712 20.4422 59.7712 19.8977 59.4358 19.5623C59.1004 19.2269 58.5559 19.2269 58.2205 19.5623L56.9005 20.8823ZM25.7948 19.4677L24.4748 18.1477C24.1394 17.8123 23.5948 17.8123 23.2595 18.1477C22.9241 18.4831 22.9241 19.0277 23.2595 19.363L24.5795 20.683L23.2595 22.003C22.9241 22.3384 22.9241 22.883 23.2595 23.2184C23.5948 23.5537 24.1394 23.5537 24.4748 23.2184L25.7948 21.8984L27.1148 23.2184C27.4502 23.5537 27.9947 23.5537 28.3301 23.2184C28.6655 22.883 28.6655 22.3384 28.3301 22.003L27.0101 20.683L28.3301 19.363C28.6655 19.0277 28.6655 18.4831 28.3301 18.1477C27.9947 17.8123 27.4502 17.8123 27.1148 18.1477L25.7948 19.4677ZM34.0054 15.6629L32.6854 16.9829C32.35 17.3183 32.35 17.8628 32.6854 18.1982C33.0208 18.5336 33.5653 18.5336 33.9007 18.1982L35.2207 16.8782L36.5407 18.1982C36.8761 18.5336 37.4206 18.5336 37.756 18.1982C38.0914 17.8628 38.0914 17.3183 37.756 16.9829L36.436 15.6629L37.756 14.3429C38.0914 14.0075 38.0914 13.463 37.756 13.1276C37.4206 12.7922 36.8761 12.7922 36.5407 13.1276L35.2207 14.4476L33.9007 13.1276C33.5653 12.7922 33.0208 12.7922 32.6854 13.1276C32.35 13.463 32.35 14.0075 32.6854 14.3429L34.0054 15.6629ZM54.9854 13.5246V13.5184V13.5123C54.9887 12.6938 55.6562 12.0312 56.477 12.0312C57.2998 12.0312 57.9688 12.6972 57.9688 13.5184C57.9688 14.3397 57.2998 15.0056 56.477 15.0056C55.6562 15.0056 54.9887 14.343 54.9854 13.5246Z" fill="#202020"/>
</g>
<defs>
<clipPath id="clip0_8115_17167">
<rect width="40" height="40" fill="white" transform="translate(20 10)"/>
</clipPath>
</defs>
</svg>
