<svg width="80" height="60" viewBox="0 0 80 60" fill="none" xmlns="http://www.w3.org/2000/svg">
<rect width="80" height="60" rx="30" fill="#F3FEFC"/>
<rect width="80" height="60" rx="30" fill="black" fill-opacity="0.06"/>
<g clip-path="url(#clip0_8115_17198)">
<path fill-rule="evenodd" clip-rule="evenodd" d="M35.1405 43.0584V47.65C35.1405 49.0341 36.2627 50.1562 37.6468 50.1562H42.353C43.7372 50.1562 44.8593 49.0341 44.8593 47.65V43.0584L46.4008 36.8955C46.453 36.6867 46.4319 36.4665 46.3409 36.2715L40.8495 24.5043C40.6955 24.1742 40.3641 23.9633 39.9999 23.9633C39.6357 23.9633 39.3044 24.1742 39.1504 24.5043L33.659 36.2715C33.568 36.4665 33.5468 36.6867 33.5991 36.8955L35.1405 43.0584ZM35.4987 36.763L36.983 42.6977C36.9945 42.7396 37.003 42.7827 37.0084 42.8268L37.0088 42.8299C37.0142 42.874 37.0164 42.9179 37.0155 42.9613V47.65C37.0155 47.9987 37.2981 48.2812 37.6468 48.2812H42.353C42.7017 48.2812 42.9843 47.9987 42.9843 47.65V42.9613C42.9834 42.9179 42.9856 42.874 42.991 42.8299L42.9915 42.8268C42.9969 42.7827 43.0054 42.7396 43.0168 42.6977L44.5012 36.763L40.9374 29.1266V35.913C41.832 36.2748 42.4753 37.1398 42.5048 38.1656C42.5445 39.5484 41.4541 40.7032 40.0713 40.7429C38.6885 40.7826 37.5337 39.6922 37.494 38.3095C37.463 37.2323 38.1179 36.2935 39.0624 35.9124V29.1266L35.4987 36.763ZM39.9813 37.6065C40.3296 37.5965 40.6205 37.8711 40.6305 38.2195C40.6405 38.5677 40.3659 38.8587 40.0175 38.8687C39.6691 38.8787 39.3782 38.604 39.3682 38.2557C39.3582 37.9073 39.6329 37.6165 39.9813 37.6065ZM35.5359 12.9815H26.2896C25.8855 11.6214 24.6251 10.6282 23.1345 10.6282C21.3183 10.6282 19.8438 12.1027 19.8438 13.919C19.8438 15.7352 21.3183 17.2098 23.1345 17.2098C24.6251 17.2098 25.8855 16.2166 26.2896 14.8565H35.5359C35.5581 15.3417 35.6854 15.7995 35.8955 16.2077C30.8209 16.8733 26.9036 21.2141 26.9036 26.47C26.9036 26.9874 27.3237 27.4075 27.8411 27.4075C28.3585 27.4075 28.7786 26.9874 28.7786 26.47C28.7786 21.7889 32.5733 17.9942 37.2544 17.9942H42.7455C47.4266 17.9942 51.2212 21.7889 51.2212 26.47C51.2212 26.9874 51.6413 27.4075 52.1587 27.4075C52.6762 27.4075 53.0962 26.9874 53.0962 26.47C53.0962 21.2141 49.179 16.8733 44.1043 16.2077C44.3145 15.7994 44.4417 15.3416 44.4639 14.8565H53.71C54.1137 16.2172 55.3737 17.2098 56.8653 17.2098C58.6829 17.2098 60.1562 15.7364 60.1562 13.919C60.1562 12.1016 58.6829 10.6282 56.8653 10.6282C55.3737 10.6282 54.1137 11.6208 53.71 12.9815H44.4639C44.3841 11.2352 42.9427 9.84375 41.1766 9.84375H38.8233C37.057 9.84375 35.6158 11.2352 35.5359 12.9815ZM37.4074 14.7034V13.1346C37.4074 12.3527 38.0413 11.7188 38.8233 11.7188H41.1766C41.9585 11.7188 42.5924 12.3527 42.5924 13.1346V14.7034C42.5924 15.4854 41.9585 16.1192 41.1766 16.1192H38.8233C38.0413 16.1192 37.4074 15.4854 37.4074 14.7034ZM23.1345 12.5032C23.9159 12.5032 24.5503 13.1376 24.5503 13.919C24.5503 14.7004 23.9159 15.3348 23.1345 15.3348C22.3531 15.3348 21.7188 14.7004 21.7188 13.919C21.7188 13.1376 22.3531 12.5032 23.1345 12.5032ZM55.4495 13.919C55.4495 13.137 56.0834 12.5032 56.8653 12.5032C57.6473 12.5032 58.2812 13.137 58.2812 13.919C58.2812 14.7009 57.6473 15.3348 56.8653 15.3348C56.0834 15.3348 55.4495 14.7009 55.4495 13.919Z" fill="#202020"/>
</g>
<defs>
<clipPath id="clip0_8115_17198">
<rect width="40" height="40" fill="white" transform="translate(20 10)"/>
</clipPath>
</defs>
</svg>
