<svg width="40" height="40" viewBox="0 0 40 40" fill="none" xmlns="http://www.w3.org/2000/svg">
<path d="M38.8281 21.9531H1.17188C0.524687 21.9531 0 22.4778 0 23.125C0 23.7722 0.524687 24.2969 1.17188 24.2969H17.9302L11.9638 34.2409C11.4958 35.0211 12.0591 36.0156 12.9688 36.0156H27.0312C27.9412 36.0156 28.5041 35.0208 28.0361 34.2409L22.0698 24.2969H38.8281C39.4753 24.2969 40 23.7722 40 23.125C40 22.4778 39.4753 21.9531 38.8281 21.9531ZM15.0385 33.6719L20 25.4027L24.9615 33.6719H15.0385Z" fill="#06CEAF"/>
<path d="M7.03125 18.0469C10.9083 18.0469 14.0625 14.8927 14.0625 11.0156C14.0625 7.13859 10.9083 3.98438 7.03125 3.98438C3.15422 3.98438 0 7.13859 0 11.0156C0 14.8927 3.15422 18.0469 7.03125 18.0469ZM7.03125 6.32812C9.61594 6.32812 11.7188 8.43094 11.7188 11.0156C11.7188 13.6003 9.61594 15.7031 7.03125 15.7031C4.44656 15.7031 2.34375 13.6003 2.34375 11.0156C2.34375 8.43094 4.44656 6.32812 7.03125 6.32812Z" fill="#06CEAF"/>
<path d="M32.9688 18.0469C36.8458 18.0469 40 14.8927 40 11.0156C40 7.13859 36.8458 3.98438 32.9688 3.98438C29.0917 3.98438 25.9375 7.13859 25.9375 11.0156C25.9375 14.8927 29.0917 18.0469 32.9688 18.0469ZM32.9688 6.32812C35.5534 6.32812 37.6562 8.43094 37.6562 11.0156C37.6562 13.6003 35.5534 15.7031 32.9688 15.7031C30.3841 15.7031 28.2812 13.6003 28.2812 11.0156C28.2812 8.43094 30.3841 6.32812 32.9688 6.32812Z" fill="#06CEAF"/>
</svg>
