<svg width="40" height="40" viewBox="0 0 40 40" fill="none" xmlns="http://www.w3.org/2000/svg">
<g id="Group">
<path id="Vector" fill-rule="evenodd" clip-rule="evenodd" d="M15.5284 4.26971L15.459 4.28952C14.2895 4.62629 13.1627 5.09562 12.0998 5.68762L12.0366 5.72267L10.8876 4.56533C9.85448 3.55124 8.17524 3.55124 7.14286 4.5661L4.56686 7.15124C3.55124 8.18057 3.55124 9.85905 4.5661 10.8884L5.72343 12.0366L5.68762 12.0998C5.09562 13.1627 4.62629 14.2895 4.28952 15.459L4.26971 15.5284H2.64457C1.19543 15.533 0.00457143 16.7238 0 18.173V21.827C0.00457143 23.2762 1.19543 24.467 2.64457 24.4716H4.26971L4.28952 24.541C4.62629 25.7097 5.09562 26.8373 5.68762 27.9002L5.72343 27.9634L4.56533 29.1124C3.55124 30.1455 3.55124 31.824 4.5661 32.8571L7.14971 35.4316C7.23886 35.5208 7.33333 35.597 7.33333 35.597C8.36952 36.4457 9.91772 36.3909 10.8884 35.4339L12.0366 34.2766L12.0998 34.3124C13.1627 34.9044 14.2895 35.3737 15.459 35.7105L15.5284 35.7303V37.3554C15.533 38.8046 16.7238 39.9954 18.173 40H21.827C23.2762 39.9954 24.467 38.8046 24.4716 37.3554V35.7303L24.541 35.7105C25.7105 35.3737 26.8373 34.9044 27.9002 34.3124L27.9634 34.2766L29.1124 35.4347C30.1455 36.4488 31.8248 36.4488 32.8571 35.4339L35.4331 32.848C36.4488 31.8187 36.4488 30.141 35.4339 29.1116L34.2766 27.9634L34.3124 27.9002C34.9044 26.8373 35.3737 25.7097 35.7105 24.541L35.7303 24.4716H37.3554C38.8046 24.467 39.9954 23.2762 40 21.827V18.173C39.9954 16.7238 38.8046 15.533 37.3554 15.5284H35.7303L35.7105 15.459C35.3737 14.2895 34.9044 13.1627 34.3124 12.0998L34.2766 12.0366L35.4347 10.8876C36.4488 9.85448 36.4488 8.17524 35.4339 7.14286L32.8503 4.56838C32.6514 4.39543 32.6171 4.36343 32.6171 4.36343C31.5817 3.55657 30.067 3.62362 29.1116 4.5661L27.9634 5.72267L27.9002 5.68762C26.8373 5.09562 25.7105 4.62629 24.541 4.28952L24.4716 4.26971V2.64457C24.467 1.19543 23.2762 0.00457143 21.827 0H18.173C16.7238 0.00457143 15.533 1.19543 15.5284 2.64457V4.26971ZM22.8358 4.89905L22.8587 5.088C22.9288 5.3821 23.1604 5.62133 23.4651 5.69371H23.4659C24.9486 6.05333 26.3665 6.64229 27.667 7.44V7.44076C27.9893 7.63505 28.403 7.58781 28.6728 7.328L30.2781 5.7219C30.4625 5.53371 30.7177 5.42629 30.9844 5.42629C31.2518 5.42629 31.5086 5.53524 31.6945 5.72724L34.2758 8.29943C34.4663 8.4861 34.5737 8.74362 34.5737 9.01105C34.5737 9.28076 34.4648 9.53829 34.2728 9.72648L32.6712 11.328C32.4114 11.5985 32.3657 12.0114 32.5592 12.3314V12.3322C33.3577 13.6335 33.9467 15.0514 34.3063 16.5349C34.3931 16.9013 34.7223 17.1627 35.0994 17.1642H37.3554C37.9086 17.1642 38.3642 17.6198 38.3642 18.173V21.827C38.3642 22.3802 37.9086 22.8358 37.3554 22.8358H35.0994C34.7291 22.8373 34.4046 23.0895 34.3109 23.4476L34.3063 23.4659L34.3124 23.4408L34.3063 23.4659C33.9467 24.9486 33.3577 26.3657 32.56 27.6663L32.5592 27.667C32.365 27.9893 32.4122 28.403 32.672 28.6728L34.2773 30.2781C34.4663 30.4625 34.5737 30.7177 34.5737 30.9844C34.5737 31.2518 34.4648 31.5086 34.2728 31.6945L31.7044 34.272C31.5162 34.4648 31.2579 34.5737 30.989 34.5737C30.7192 34.5737 30.4617 34.4648 30.2735 34.272L28.672 32.6712C28.4015 32.4114 27.9886 32.3657 27.6678 32.5592H27.667C26.3665 33.357 24.9486 33.9467 23.4651 34.3063C23.0987 34.3931 22.8373 34.7223 22.8358 35.0994V37.3554C22.8358 37.9086 22.3802 38.3642 21.827 38.3642H18.173C17.6198 38.3642 17.1642 37.9086 17.1642 37.3554V35.4118L17.165 35.4126L17.1642 35.0994C17.1627 34.7223 16.9013 34.3931 16.5341 34.3063C15.0507 33.9467 13.6335 33.357 12.3314 32.5585L12.3307 32.5577C12.2034 32.4785 12.0571 32.4366 11.9078 32.4358H11.907C11.6899 32.4373 11.4827 32.5219 11.3272 32.672L9.72648 34.272C9.53905 34.4625 9.28305 34.5699 9.01562 34.5699C8.74895 34.5699 8.49219 34.4625 8.30552 34.2728L5.72648 31.7029C5.53371 31.5131 5.42629 31.2564 5.42629 30.989C5.42629 30.7192 5.53524 30.461 5.72724 30.2735L7.32876 28.672C7.58857 28.4015 7.63429 27.9886 7.44076 27.6678V27.667C6.64229 26.3657 6.05333 24.9486 5.69371 23.4651C5.60686 23.0987 5.27771 22.8373 4.90057 22.8358H2.64457C2.09143 22.8358 1.63581 22.3802 1.63581 21.827V18.173C1.63581 17.6198 2.09143 17.1642 2.64457 17.1642H4.89981C5.27771 17.1627 5.60686 16.9013 5.69371 16.5341C6.05333 15.0514 6.64229 13.6335 7.44 12.333L7.44076 12.3322C7.63505 12.0107 7.58781 11.5962 7.328 11.3265L5.72267 9.7219C5.53371 9.53752 5.42629 9.28229 5.42629 9.01562C5.42629 8.74819 5.53524 8.49143 5.72724 8.30552L8.29562 5.728C8.48381 5.53524 8.74209 5.42629 9.01105 5.42629C9.28076 5.42629 9.53829 5.53524 9.72648 5.72724L11.328 7.32876C11.5985 7.58781 12.0114 7.63429 12.3322 7.44076H12.333C13.6335 6.64229 15.0514 6.05333 16.5349 5.69371C16.9013 5.60686 17.1627 5.27771 17.1642 4.90057V2.64457C17.1642 2.09143 17.6198 1.63581 18.173 1.63581H21.827C22.3802 1.63581 22.8358 2.09143 22.8358 2.64457V4.89905ZM23.4667 34.3055C23.504 34.2971 23.5032 34.2971 23.4941 34.2994C23.4842 34.3017 23.4659 34.3063 23.4659 34.3063L23.4667 34.3055ZM22.8587 5.088L22.8358 4.90057C22.8358 4.96457 22.8442 5.02781 22.8587 5.088Z" fill="#07E7C4"/>
<path id="Vector_2" fill-rule="evenodd" clip-rule="evenodd" d="M20 8.22083C26.4594 8.22692 31.7729 13.5404 31.779 19.9999C31.779 26.4616 26.4617 31.7789 20 31.7789C13.5383 31.7789 8.22095 26.4616 8.22095 19.9999C8.22095 13.5382 13.5383 8.22083 20 8.22083ZM16.4419 19.9184V19.9999C16.4434 20.2726 16.5813 20.5279 16.8107 20.6787L19.552 22.5065C19.8194 22.6917 20.1752 22.694 20.4465 22.5073L23.1916 20.6772C23.4179 20.5279 23.5566 20.2734 23.5581 19.9999V14.5911L23.7189 14.6764C25.4537 15.8879 26.4899 17.8757 26.4899 19.9923C26.4899 22.3069 25.2503 24.4524 23.245 25.609C22.9912 25.7553 22.835 26.0273 22.8358 26.3214V29.7263L22.7672 29.7469C20.9661 30.2742 19.0514 30.2757 17.2488 29.7515L17.1642 29.7263V26.3191C17.1649 26.0273 17.0088 25.7553 16.755 25.609C14.7497 24.4524 13.5101 22.3069 13.5101 19.9923C13.5101 17.878 14.5448 15.8924 16.2758 14.6803L16.2834 14.6749C16.3413 14.6414 16.3939 14.6117 16.4419 14.5858V19.9184ZM16.9562 12.4578L16.9493 12.4608L16.9752 12.4509L16.9486 12.4616C13.8857 13.7004 11.8697 16.6894 11.8697 19.9938C11.8697 22.7069 13.2289 25.2471 15.4857 26.7526L15.5284 26.7656V26.7671L15.4903 26.7557L15.5284 26.7808V29.0985L15.3897 29.0277C11.9992 27.2974 9.85676 23.7987 9.85676 19.9923C9.85676 14.4281 14.4358 9.84902 20 9.84902C25.5642 9.84902 30.1432 14.4281 30.1432 19.9923C30.1432 23.7987 28.0008 27.2974 24.6103 29.0277L24.4716 29.0985V26.7808L24.5143 26.7526C26.771 25.2471 28.1303 22.7069 28.1303 19.9938C28.1303 16.6909 26.1166 13.7027 23.0529 12.4616L23.0491 12.4601C22.7947 12.3663 22.5135 12.3961 22.2865 12.5408L22.2758 12.5477C22.0579 12.7031 21.9261 12.9538 21.9223 13.2212V19.5572C21.9223 19.558 20 20.8456 20 20.8456L18.0777 19.558V13.2174C18.0777 12.7686 17.7082 12.3999 17.2594 12.3999C17.1558 12.3999 17.0537 12.4197 16.9562 12.4578Z" fill="#07E7C4"/>
</g>
</svg>
