<svg width="80" height="60" viewBox="0 0 80 60" fill="none" xmlns="http://www.w3.org/2000/svg">
<rect width="80" height="60" rx="30" fill="#F3FEFC"/>
<rect width="80" height="60" rx="30" fill="black" fill-opacity="0.06"/>
<path d="M54.5922 19.7751L52.4352 21.9321L52.9105 22.5025C55.4156 25.5084 56.7792 29.2597 56.7792 33.2206C56.7792 42.4955 49.2735 50 40.0001 50C30.7252 50 23.2207 42.4943 23.2207 33.2206C23.2207 24.4025 29.976 17.2833 38.4496 16.5128L39.189 16.4455V11.6219H36.8062C36.3583 11.6219 35.9954 11.2586 35.9954 10.8108C35.9954 10.363 36.3583 10 36.8062 10H43.1937C43.6415 10 44.0045 10.363 44.0045 10.8108C44.0045 11.2586 43.6416 11.6219 43.1937 11.6219H40.8109V16.4456L41.5503 16.5128C44.9346 16.8205 48.1073 18.1347 50.7183 20.3102L51.2886 20.7854L53.4456 18.6285C53.7622 18.3118 54.2756 18.3118 54.5922 18.6285C54.909 18.945 54.9089 19.4585 54.5922 19.7751ZM39.9998 48.3781C48.3578 48.3781 55.1573 41.5785 55.1573 33.2206C55.1573 24.8629 48.3578 18.0634 39.9998 18.0634C31.6422 18.0634 24.8422 24.8629 24.8422 33.2206C24.8422 41.5785 31.6422 48.3781 39.9998 48.3781ZM51.5894 21.6313C51.9061 21.9479 56.428 33.0168 56.1113 33.3333H40.5558H40.0002L39.9998 17.2222C40.3166 16.9055 51.2727 21.3145 51.5894 21.6313Z" fill="#202020"/>
</svg>
