<svg width="80" height="60" viewBox="0 0 80 60" fill="none" xmlns="http://www.w3.org/2000/svg">
<rect width="80" height="60" rx="30" fill="#F3FEFC"/>
<rect width="80" height="60" rx="30" fill="black" fill-opacity="0.06"/>
<path fill-rule="evenodd" clip-rule="evenodd" d="M38.2177 30.1821V36.6916C38.2177 37.8718 38.6923 39.0035 39.5196 39.8308C40.3592 40.6704 41.4784 41.1325 42.6586 41.1325H53.2805L57.9162 45.7682C58.1474 45.9994 58.488 46.0604 58.78 45.9387C59.072 45.8171 59.2669 45.5249 59.2669 45.2086V29.3913C59.2669 28.2111 58.8045 27.0916 57.9649 26.2521C57.1376 25.4247 56.0059 24.9504 54.8257 24.9504H44.6663V18.4409C44.6663 17.2607 44.2039 16.1412 43.3644 15.3017C42.537 14.4743 41.4053 14 40.2251 14H26.8413C25.6611 14 24.5419 14.4743 23.7024 15.3017C22.875 16.1412 22.4004 17.2607 22.4004 18.4409V34.2582C22.4004 34.5745 22.5949 34.8666 22.887 34.9883C23.1911 35.11 23.5321 35.049 23.7511 34.8178L28.3865 30.1821H38.2177ZM44.5932 26.5319C44.4351 27.4201 44.0092 28.2355 43.3644 28.8804C42.537 29.7199 41.4053 30.1821 40.2251 30.1821H39.7995V36.6916C39.7995 37.446 40.1036 38.1762 40.6389 38.7115C41.1743 39.2591 41.9042 39.551 42.6586 39.551H53.609C53.828 39.551 54.0229 39.6361 54.1689 39.7821L57.6851 43.2986V29.3913C57.6851 28.637 57.3932 27.9073 56.8456 27.372C56.3103 26.8366 55.5922 26.5319 54.8257 26.5319H44.5932ZM53.2077 36.8621H44.9949V35.889H48.5719V34.0395H45.7734V33.0658H48.5719V31.3382H45.2138V30.365H49.095C48.6205 29.8784 48.0732 29.5009 47.4526 29.2089L48.2556 28.4669C48.9369 28.7467 49.5453 29.1726 50.0685 29.7323L49.2899 30.365H53.0006V31.3382H49.6425V33.0658H52.441V34.0395H49.6425V35.889H53.2077V36.8621ZM23.9822 32.3481V18.4409C23.9822 17.6865 24.2863 16.9569 24.8216 16.4215C25.357 15.8862 26.0869 15.5815 26.8413 15.5815H40.2251C40.9917 15.5815 41.7097 15.8862 42.2451 16.4215C42.7926 16.9569 43.0845 17.6865 43.0845 18.4409V25.7412C43.0845 26.4955 42.7926 27.2258 42.2451 27.7611C41.7097 28.3086 40.9917 28.6006 40.2251 28.6006H28.058C27.8512 28.6006 27.6565 28.6857 27.4984 28.8317L23.9822 32.3481ZM35.1759 23.6363H31.8665L31.2094 25.1697H29.944L32.9249 18.5264H34.1416L37.1349 25.1697H35.8451L35.1759 23.6363ZM34.7743 22.6631L33.521 19.755L32.2803 22.6631H34.7743Z" fill="#202020"/>
</svg>
