<svg width="80" height="60" viewBox="0 0 80 60" fill="none" xmlns="http://www.w3.org/2000/svg">
<rect width="80" height="60" rx="30" fill="#08DBBA"/>
<path d="M54.9032 50H25.0961C22.286 50 20 47.6864 20 44.8425V15.1582C20 12.3143 22.286 10 25.0961 10H54.9032C57.7133 10 60 12.3143 60 15.1582V44.8425C60 47.6864 57.7133 50 54.9032 50ZM25.0961 11.6019C23.1584 11.6019 21.5821 13.1972 21.5821 15.1582V44.8425C21.5821 46.8028 23.1584 48.3981 25.0961 48.3981H54.9032C56.8409 48.3981 58.4172 46.8028 58.4172 44.8425V15.1582C58.4172 13.1972 56.8409 11.6019 54.9032 11.6019H25.0961Z" fill="#202020"/>
<path d="M35.7749 28.144C33.3869 28.144 31.9709 26.776 31.9709 24.304V19.6H33.9149V24.232C33.9149 25.828 34.6109 26.488 35.7869 26.488C36.9749 26.488 37.6589 25.828 37.6589 24.232V19.6H39.5789V24.304C39.5789 26.776 38.1629 28.144 35.7749 28.144ZM48.9187 28H46.6747L44.6467 25.084L42.6547 28H40.4227L43.5307 23.728L40.5787 19.6H42.7867L44.7187 22.324L46.6147 19.6H48.7147L45.7867 23.656L48.9187 28ZM30.5571 41.2L34.5171 29.896H36.1851L32.2251 41.2H30.5571ZM40.3803 40.144C37.9923 40.144 36.5763 38.776 36.5763 36.304V31.6H38.5203V36.232C38.5203 37.828 39.2163 38.488 40.3923 38.488C41.5803 38.488 42.2643 37.828 42.2643 36.232V31.6H44.1843V36.304C44.1843 38.776 42.7683 40.144 40.3803 40.144ZM46.1054 40V31.6H48.0494V40H46.1054Z" fill="#202020"/>
</svg>
