<svg width="80" height="60" viewBox="0 0 80 60" fill="none" xmlns="http://www.w3.org/2000/svg">
<rect width="80" height="60" rx="30" fill="#F3FEFC"/>
<rect width="80" height="60" rx="30" fill="black" fill-opacity="0.06"/>
<path d="M54.7869 50.3767H25.0791C22.2784 50.3767 20 48.0983 20 45.2976V15.0798C20 12.2791 22.2784 10 25.0791 10H54.7869C57.5876 10 59.8667 12.2791 59.8667 15.0798V45.2976C59.8667 48.0983 57.5876 50.3767 54.7869 50.3767ZM25.0791 11.5775C23.1479 11.5775 21.5768 13.1486 21.5768 15.0798V45.2976C21.5768 47.2281 23.1479 48.7992 25.0791 48.7992H54.7869C56.7181 48.7992 58.2891 47.2281 58.2891 45.2976V15.0798C58.2891 13.1486 56.7181 11.5775 54.7869 11.5775H25.0791Z" fill="#202020"/>
<path d="M35.7085 29.0776C33.3205 29.0776 31.9045 27.7096 31.9045 25.2376V20.5336H33.8485V25.1656C33.8485 26.7616 34.5445 27.4216 35.7205 27.4216C36.9085 27.4216 37.5925 26.7616 37.5925 25.1656V20.5336H39.5125V25.2376C39.5125 27.7096 38.0965 29.0776 35.7085 29.0776ZM48.8523 28.9336H46.6083L44.5803 26.0176L42.5883 28.9336H40.3563L43.4643 24.6616L40.5123 20.5336H42.7203L44.6523 23.2576L46.5483 20.5336H48.6483L45.7203 24.5896L48.8523 28.9336ZM30.4907 42.1336L34.4507 30.8296H36.1187L32.1587 42.1336H30.4907ZM40.3139 41.0776C37.9259 41.0776 36.5099 39.7096 36.5099 37.2376V32.5336H38.4539V37.1656C38.4539 38.7616 39.1499 39.4216 40.3259 39.4216C41.5139 39.4216 42.1979 38.7616 42.1979 37.1656V32.5336H44.1179V37.2376C44.1179 39.7096 42.7019 41.0776 40.3139 41.0776ZM46.039 40.9336V32.5336H47.983V40.9336H46.039Z" fill="#202020"/>
</svg>
