<svg width="48" height="57" viewBox="0 0 48 57" fill="none" xmlns="http://www.w3.org/2000/svg">
<g clip-path="url(#clip0_561_137)">
<path d="M47.0771 52.5826V4.41748H0.922974V52.5826H47.0771ZM45.2307 50.7479H2.7691V6.2524H45.2307L45.2307 50.7479Z" fill="#424242"/>
<path d="M5.0769 38.8213H42.9234V48.4543H5.0769V38.8213Z" fill="#424242"/>
<path d="M39.4618 47.3074V39.9678H36.1421V47.3074H39.4618ZM35.3964 43.6382C35.3999 42.6684 35.0158 41.7369 34.3283 41.0485C33.6409 40.3602 32.7065 39.9714 31.7307 39.9678H26.8247V47.3074H31.7307C32.7063 47.3039 33.6406 46.9154 34.3281 46.2273C35.0155 45.5392 35.3998 44.6079 35.3964 43.6382ZM32.3476 43.6376C32.3476 44.5188 31.6763 45.2325 30.8472 45.2325H30.1365V42.0431H30.8482C31.6773 42.0431 32.3476 42.757 32.3476 43.6376ZM19.9159 47.3074H26.1855V45.187H23.287V39.9678H19.9159V47.3074ZM16.1327 47.3074H19.4797L15.6973 39.9678H12.321L8.53845 47.3074H11.8856L12.2414 46.5359H15.7768L16.1327 47.3074ZM14.7837 44.6041H13.235L13.9901 42.9751L14.7837 44.6041Z" fill="#ECF6F4"/>
<path d="M36.8204 37.9036C37.3381 36.9871 37.6002 35.9497 37.5795 34.8988C37.556 33.6662 37.0427 32.8735 36.3409 31.8267L26.0863 16.5239L27.7552 14.0212L39.1692 30.986C40.1087 32.3811 40.646 33.4228 40.6836 34.9785C40.672 35.9912 40.4393 36.9893 40.0014 37.9037L36.8204 37.9036ZM23.8343 8.5459L8.83137 30.986C7.89206 32.3811 7.35459 33.4228 7.31714 34.9785C7.3288 35.9911 7.56143 36.9892 7.99895 37.9037H11.1803C10.6625 36.9872 10.4004 35.9498 10.4211 34.8989C10.4448 33.6662 10.9581 32.8735 11.6597 31.8267L27.165 8.5459H23.8343ZM14.4646 32.4044H32.6093L31.3697 30.5551H15.6864L14.961 31.6364C14.795 31.8836 14.6237 32.1484 14.4646 32.4044Z" fill="#424242"/>
<path d="M40.4723 37.9037C40.5566 37.7229 40.5982 37.6151 40.6634 37.4429C40.9115 36.7921 41.2091 35.9011 41.1869 34.9722C41.1474 33.3419 40.5772 32.249 39.6277 30.8403L28.0267 13.6215L29.3687 11.6228L41.9883 30.4332C43.0959 32.0853 43.6155 33.0489 43.6155 34.5831C43.6155 36.3313 43.1468 37.1021 42.7896 37.9038L40.4723 37.9037ZM33.3906 37.9037H36.2784C36.8189 36.9967 37.0951 35.9582 37.0762 34.9042C37.054 33.7563 36.5846 33.0211 35.8815 31.9727L25.7991 16.9396L24.4901 18.8935L33.0395 31.6364C33.8012 32.7714 34.4369 33.793 34.4935 34.8309C34.524 35.3902 34.4422 35.9499 34.2529 36.4774C34.0635 37.005 33.7703 37.4899 33.3906 37.9037ZM20.5878 8.54596L6.01265 30.4332C4.9047 32.0849 4.38516 33.0489 4.38452 34.5831C4.38452 36.3316 4.85366 37.1018 5.21048 37.9038H7.5385C7.47662 37.7672 7.41081 37.6114 7.34539 37.4395C7.03346 36.6539 6.87396 35.8168 6.87529 34.9723C6.91448 33.342 7.48499 32.249 8.43377 30.84L23.3384 8.54603L20.5878 8.54596ZM27.6597 8.54596L12.0574 31.9727C11.3543 33.0211 10.885 33.7563 10.8625 34.9042C10.8433 35.9582 11.1195 36.9967 11.6601 37.9037H14.61C14.2303 37.4898 13.9372 37.005 13.7479 36.4774C13.5586 35.9499 13.4767 35.3902 13.5071 34.8309C13.5223 34.5563 13.5676 34.2841 13.6423 34.0193H33.4974C33.3654 33.5983 33.1621 33.2028 32.8961 32.8498H14.1958C14.4116 32.4762 14.695 32.0322 14.961 31.6364L15.9847 30.1104H31.0707L30.2445 28.8784H16.8112L30.3447 8.5459L27.6597 8.54596Z" fill="#424242"/>
</g>
<defs>
<clipPath id="clip0_561_137">
<rect width="48" height="50" fill="white" transform="translate(0 3.5)"/>
</clipPath>
</defs>
</svg>
