<svg width="79" height="57" viewBox="0 0 79 57" fill="none" xmlns="http://www.w3.org/2000/svg">
<path d="M27.1958 42.1102V21.7604L35.3945 21.7471V24.2102L29.7504 24.2235V30.4759H34.4712V32.9395H29.7504V39.6603H35.3945V42.1102H27.1958V42.1102Z" fill="#424242"/>
<path d="M27.1958 42.1102V21.7604L35.3945 21.7471V24.2102L29.7504 24.2235V30.4759H34.4712V32.9395H29.7504V39.6603H35.3945V42.1102H27.1958V42.1102Z" fill="#424242"/>
<path d="M40.5684 42.1102V21.7604L48.7671 21.7471V24.2102L43.123 24.2235V30.4759H47.8447V32.9395H43.123V39.6603H48.7671V42.1102H40.5684Z" fill="#424242"/>
<path d="M40.5684 42.1102V21.7604L48.7671 21.7471V24.2102L43.123 24.2235V30.4759H47.8447V32.9395H43.123V39.6603H48.7671V42.1102H40.5684Z" fill="#424242"/>
<path d="M60.8026 35.0955C60.8026 34.7561 60.7527 34.4393 60.6554 34.1448C60.5571 33.85 60.4147 33.592 60.2273 33.3681C60.0399 33.1452 59.8089 32.9709 59.5314 32.846C59.2555 32.7211 58.9389 32.6584 58.5827 32.6584H56.5492V39.6476H58.6096C58.9478 39.6476 59.2555 39.6158 59.5314 39.5536C59.8089 39.4913 60.0419 39.362 60.2341 39.1661C60.426 38.9687 60.5703 38.6949 60.6691 38.3423C60.7664 37.9892 60.8116 37.5185 60.8026 36.9293V35.0955V35.0955ZM60.535 26.5142C60.535 26.1747 60.4999 25.8578 60.4278 25.5629C60.3574 25.2686 60.241 25.0139 60.0799 24.7999C59.9196 24.5853 59.7106 24.4159 59.4512 24.2905C59.1934 24.1661 58.8758 24.1034 58.5025 24.1034H56.5492V30.329H58.2882C59.1263 30.329 59.715 30.1174 60.0536 29.6934C60.3927 29.2692 60.5571 28.629 60.5483 27.7718L60.535 26.5142ZM63.3573 36.8896C63.3573 37.8359 63.2653 38.6386 63.0829 39.2994C62.9004 39.96 62.6146 40.4983 62.2276 40.9126C61.8395 41.328 61.3463 41.6292 60.7494 41.8168C60.1519 42.0035 59.4429 42.0979 58.6228 42.0979H54.0078V21.7471H58.5685C60.0668 21.7471 61.1946 22.1286 61.9526 22.8922C62.71 23.6553 63.0896 24.7999 63.0896 26.3266V27.5573C63.0896 28.6109 62.9355 29.4635 62.6278 30.1145C62.3215 30.7664 61.8014 31.1944 61.0703 31.4001C61.4182 31.4804 61.7323 31.6279 62.0128 31.8419C62.2936 32.0565 62.5344 32.3224 62.7349 32.6383C62.9355 32.9557 63.0896 33.3216 63.1968 33.7364C63.3035 34.1512 63.3573 34.6047 63.3573 35.0955V36.8896Z" fill="#424242"/>
<path d="M60.8026 35.0955C60.8026 34.7561 60.7527 34.4393 60.6554 34.1448C60.5571 33.85 60.4147 33.592 60.2273 33.3681C60.0399 33.1452 59.8089 32.9709 59.5314 32.846C59.2555 32.7211 58.9389 32.6584 58.5827 32.6584H56.5492V39.6476H58.6096C58.9478 39.6476 59.2555 39.6158 59.5314 39.5536C59.8089 39.4913 60.0419 39.362 60.2341 39.1661C60.426 38.9687 60.5703 38.6949 60.6691 38.3423C60.7664 37.9892 60.8116 37.5185 60.8026 36.9293V35.0955V35.0955ZM60.535 26.5142C60.535 26.1747 60.4999 25.8578 60.4278 25.5629C60.3574 25.2686 60.241 25.0139 60.0799 24.7999C59.9196 24.5853 59.7106 24.4159 59.4512 24.2905C59.1934 24.1661 58.8758 24.1034 58.5025 24.1034H56.5492V30.329H58.2882C59.1263 30.329 59.715 30.1174 60.0536 29.6934C60.3927 29.2692 60.5571 28.629 60.5483 27.7718L60.535 26.5142ZM63.3573 36.8896C63.3573 37.8359 63.2653 38.6386 63.0829 39.2994C62.9004 39.96 62.6146 40.4983 62.2276 40.9126C61.8395 41.328 61.3463 41.6292 60.7494 41.8168C60.1519 42.0035 59.4429 42.0979 58.6228 42.0979H54.0078V21.7471H58.5685C60.0668 21.7471 61.1946 22.1286 61.9526 22.8922C62.71 23.6553 63.0896 24.7999 63.0896 26.3266V27.5573C63.0896 28.6109 62.9355 29.4635 62.6278 30.1145C62.3215 30.7664 61.8014 31.1944 61.0703 31.4001C61.4182 31.4804 61.7323 31.6279 62.0128 31.8419C62.2936 32.0565 62.5344 32.3224 62.7349 32.6383C62.9355 32.9557 63.0896 33.3216 63.1968 33.7364C63.3035 34.1512 63.3573 34.6047 63.3573 35.0955V36.8896Z" fill="#424242"/>
<path d="M73.9604 34.4V42.111H71.4194V34.4L67.3259 21.7612H70.1212L72.7292 30.825L75.4444 21.7612H78L73.9604 34.4V34.4Z" fill="#424242"/>
<path d="M73.9604 34.4V42.111H71.4194V34.4L67.3259 21.7612H70.1212L72.7292 30.825L75.4444 21.7612H78L73.9604 34.4V34.4Z" fill="#424242"/>
<path d="M23.3108 11H7.77256C7.83857 11 7.90566 11.0015 7.97021 11.0049C7.90472 11.0029 7.83857 11 7.77256 11H7.77056C7.74314 11 7.71626 11.0011 7.68937 11.002C7.64931 11.002 7.61005 11.004 7.57092 11.0049C3.37173 11.1112 0 14.549 0 18.7777V26.5515C0.000931674 25.1356 0.381587 23.8097 1.04268 22.6666C2.38628 20.3421 4.89502 18.7777 7.77056 18.7777H23.3108C25.4564 18.7777 27.1964 17.0361 27.1964 14.8883C27.1964 12.7411 25.4564 11 23.3108 11" fill="#424242"/>
<path d="M23.3108 11H7.77256C7.83857 11 7.90566 11.0015 7.97021 11.0049C7.90472 11.0029 7.83857 11 7.77256 11H7.77056C7.74314 11 7.71626 11.0011 7.68937 11.002C7.64931 11.002 7.61005 11.004 7.57092 11.0049C3.37173 11.1112 0 14.549 0 18.7777V26.5515C0.000931674 25.1356 0.381587 23.8097 1.04268 22.6666C2.38628 20.3421 4.89502 18.7777 7.77056 18.7777H23.3108C25.4564 18.7777 27.1964 17.0361 27.1964 14.8883C27.1964 12.7411 25.4564 11 23.3108 11" fill="#424242"/>
<path d="M1.04228 22.6668C0.381188 23.8094 0.000532385 25.1357 0 26.5516V42.111C0 44.2586 1.73957 45.9999 3.88508 45.9999C6.03073 45.9999 7.77016 44.2586 7.77016 42.111V34.3332H7.76617H15.5398C17.6864 34.3332 19.4258 32.5921 19.4258 30.444C19.4258 28.2962 17.6864 26.5556 15.5413 26.5556L7.77016 26.5595V18.7773C4.89448 18.7773 2.38642 20.3422 1.04228 22.6668V22.6668Z" fill="#424242"/>
<path d="M1.04228 22.6668C0.381188 23.8094 0.000532385 25.1357 0 26.5516V42.111C0 44.2586 1.73957 45.9999 3.88508 45.9999C6.03073 45.9999 7.77016 44.2586 7.77016 42.111V34.3332H7.76617H15.5398C17.6864 34.3332 19.4258 32.5921 19.4258 30.444C19.4258 28.2962 17.6864 26.5556 15.5413 26.5556L7.77016 26.5595V18.7773C4.89448 18.7773 2.38642 20.3422 1.04228 22.6668V22.6668Z" fill="#424242"/>
</svg>
