<svg width="50" height="57" viewBox="0 0 50 57" fill="none" xmlns="http://www.w3.org/2000/svg">
<path d="M23.6691 21.2003C20.4363 19.2981 17.2034 17.3957 13.9706 15.4935C18.2416 13.0162 22.5125 10.539 26.7834 8.0617C29.9756 9.94183 33.1677 11.822 36.3598 13.7022L42.9227 9.82453L25.8311 0.0004673L7.13716 11.5949C7.11683 14.1939 7.0965 16.793 7.07617 19.392C10.3842 21.3082 13.6922 23.2244 17 25.1406L23.6691 21.2003Z" fill="#424242"/>
<path d="M25.9826 24.166C29.3735 26.1614 32.7644 28.1566 36.1552 30.1519C31.963 32.5834 27.7707 35.0151 23.5785 37.4467C20.2278 35.4731 16.8769 33.4994 13.5261 31.5258L7.07617 35.3366L24.5133 45.3594L42.8628 33.9787C42.8828 31.4275 42.9027 28.8763 42.9227 26.3251C39.4563 24.3172 35.99 22.3092 32.5237 20.3013L25.9826 24.166Z" fill="#424242"/>
<path d="M32.5508 20.3001L26.0098 24.1648C29.3917 26.1548 32.7736 28.1448 36.1555 30.1348L42.776 26.2232C39.3676 24.2488 35.9592 22.2745 32.5508 20.3001Z" fill="#424242"/>
<path d="M45.3762 55.1248V51.512H48.9661V53.0659L49.9969 51.7468L49.9945 51.6971C49.9733 51.288 49.8905 51.0039 49.7413 50.8285C49.5638 50.6208 49.2413 50.5154 48.783 50.5154H45.5595C45.0892 50.5154 44.7725 50.619 44.591 50.8326C44.4181 51.0386 44.334 51.393 44.334 51.9161V54.7373C44.334 55.2603 44.4181 55.6148 44.5917 55.8218C44.7718 56.0336 45.0885 56.1367 45.5595 56.1367H46.5654L47.3562 55.1248H45.3762Z" fill="#424242"/>
<path d="M48.9678 53.5845V55.1249H47.7635L46.9727 56.1367H48.7846C49.2495 56.1367 49.5628 56.0353 49.7428 55.8265C49.9165 55.6236 50.0009 55.2674 50.0009 54.7373V52.2626L48.9678 53.5845Z" fill="#424242"/>
<path d="M29.9961 50.0629L29.998 56.3672H30.9781L30.9802 52.4211L32.3418 53.8278L32.9375 53.0652L29.9961 50.0629Z" fill="#424242"/>
<path d="M34.4309 50.7485V54.592L33.1626 53.2965L32.5664 54.0596L35.4129 57V50.7459H34.5645L34.4309 50.7485Z" fill="#424242"/>
<path d="M16.2459 55.4061H15.0321V50.3496H14V56.3379H15.5348L16.2459 55.4061Z" fill="#424242"/>
<path d="M15.9668 56.3379H18.497V55.4061H16.6779L15.9668 56.3379Z" fill="#424242"/>
<path d="M22.5291 55.4061H21.3153V50.3496H20.2832V56.3379H21.818L22.5291 55.4061Z" fill="#424242"/>
<path d="M22.25 56.3379H24.7802V55.4061H22.9611L22.25 56.3379Z" fill="#424242"/>
<path d="M26.5664 53.3322V56.3379H27.5985V51.9798L26.5664 53.3322Z" fill="#424242"/>
<path d="M27.5985 51.4133V50.3485H26.5664V52.7656L27.5985 51.4133Z" fill="#424242"/>
<path d="M11.8473 51.3672V50.3593L11.0781 51.3672H11.8473Z" fill="#424242"/>
<path d="M10.2767 53.7266V52.7086H10.0543L9.27734 53.7266H10.2767Z" fill="#424242"/>
<path d="M8.27469 55.3922V53.727H8.84539L9.62233 52.7089H8.27469V51.3676H10.646L11.4229 50.3496H8.21743H7.99649H7.22461V51.2597H7.227C7.22575 51.291 7.22461 51.3227 7.22461 51.3556V56.3379H11.8916V55.3922H8.27469Z" fill="#424242"/>
<path d="M42.4333 51.3672V50.3593L41.6641 51.3672H42.4333Z" fill="#424242"/>
<path d="M40.8626 53.7266V52.7086H40.6402L39.8633 53.7266H40.8626Z" fill="#424242"/>
<path d="M38.8606 55.3922V53.727H39.4313L40.2083 52.7089H38.8606V51.3676H41.2319L42.0089 50.3496H38.8034H38.5824H37.8105V51.2597H37.8129C37.8117 51.291 37.8105 51.3227 37.8105 51.3556V56.3379H42.4775V55.3922H38.8606Z" fill="#424242"/>
<path d="M1.14885 53.8457H3.04774L3.93768 52.6868C3.9059 52.6856 3.87469 52.684 3.84138 52.684H1.33619C1.1187 52.684 0.942427 52.5079 0.942427 52.2909V51.8137C0.942427 51.5876 1.12605 51.4043 1.35251 51.4043V51.4025H4.08426L4.8886 50.3486H1.35251H1.14885H0.837257L0.0127884 51.4143C0.00458089 51.5212 0 51.6365 0 51.7619V52.4205C0 52.9795 0.0821701 53.3567 0.246892 53.5523C0.411328 53.748 0.712045 53.8457 1.14885 53.8457Z" fill="#424242"/>
<path d="M1.13451 56.3379L2.00822 55.2001H0.956714L0.242188 56.1364C0.413972 56.2705 0.685868 56.3379 1.05883 56.3379H1.13451Z" fill="#424242"/>
<path d="M4.74803 52.9725C4.65317 52.8641 4.51374 52.7875 4.33279 52.7404L3.48323 53.8467H3.63898C3.86487 53.8467 4.04801 54.0296 4.04801 54.2552V54.7635C4.04801 55.0046 3.85218 55.2001 3.61073 55.2001H2.44403L1.57031 56.3379H3.84159C4.2783 56.3379 4.58045 56.242 4.74803 56.0504C4.91543 55.8588 4.99932 55.4836 4.99932 54.9247V54.0983C4.99932 53.5395 4.91543 53.1641 4.74803 52.9725Z" fill="#424242"/>
</svg>
