<svg width="134" height="35" viewBox="0 0 134 35" fill="none" xmlns="http://www.w3.org/2000/svg">
<path d="M15.3238 19.7563L6.0269 20.578L6.85037 11.1351L2.02886 11.5521L0 34.9998L4.82152 34.5706L5.6808 24.5881L14.9777 23.7788L14.0946 33.7612L18.9161 33.332L20.9808 9.89648L16.1592 10.3134L15.3238 19.7563Z" fill="#0E1B2B"/>
<path d="M21.3125 33.1245L26.134 32.7076L28.1629 9.25977L23.3533 9.68899L21.3125 33.1245Z" fill="#0E1B2B"/>
<path d="M43.3345 8.84179C42.2246 8.33899 40.8402 8.1673 39.1694 8.31446L30.5289 9.0748L28.5 32.5103L33.3215 32.0934L34.1211 23.0797L37.057 22.8222L40.2435 31.4802L45.5424 31.0142L41.8905 21.7798C42.2007 21.6449 42.511 21.4977 42.7975 21.326C44.1341 20.5412 45.1486 19.5356 45.8408 18.2969C46.533 17.0583 46.8552 15.6726 46.7836 14.1274C46.7478 12.9746 46.4494 11.9322 45.8646 11.0002C45.2798 10.0681 44.4325 9.3446 43.3226 8.84179H43.3345ZM35.0162 12.8152L38.6443 12.4963C39.7423 12.3982 40.5419 12.5822 41.055 13.0482C41.5682 13.5142 41.8427 14.1641 41.8666 15.0103C41.9143 16.1631 41.604 17.1074 40.9357 17.8555C40.2674 18.6035 39.3126 19.0328 38.0714 19.1309L34.4434 19.4497L35.0281 12.8152H35.0162Z" fill="#0E1B2B"/>
<path d="M63.3825 10.1424L63.7645 6.14453L49.2164 7.41993L47.1875 30.8677L61.6998 29.5923L62.0459 25.6067L52.3551 26.4529L52.8802 20.4315L61.6163 19.6589L61.9504 15.845L53.2144 16.6053L53.6918 10.9886L63.3825 10.1424Z" fill="#0E1B2B"/>
<path d="M77.1545 14.6424L69.6358 15.3046L70.1371 9.5408L79.8279 8.69462L80.174 4.70898L65.6617 5.98439L63.6328 29.4199L68.4424 29.003L69.2778 19.1922L76.7965 18.5299L77.1545 14.6424Z" fill="#0E1B2B"/>
<path d="M105.981 6.53735C106.399 6.30435 106.888 6.15718 107.449 6.10813C108.01 6.05908 108.499 6.12039 108.917 6.29208C109.334 6.46377 109.669 6.74583 109.907 7.11374C110.146 7.4939 110.241 7.95992 110.206 8.51177L115.373 8.05802C115.421 6.57414 115.135 5.34779 114.514 4.37898C113.893 3.41016 113.022 2.72341 111.9 2.29418C110.778 1.87723 109.454 1.73006 107.938 1.86496C106.267 2.01212 104.787 2.44135 103.498 3.16489C102.21 3.88844 101.219 4.83273 100.515 6.02229C99.8107 7.19958 99.5004 8.54856 99.5601 10.0447C99.6078 11.455 100.073 12.6078 100.944 13.4785C101.816 14.3492 103.033 14.9992 104.596 15.4161C105.122 15.551 105.647 15.6859 106.148 15.8331C106.661 15.9802 107.127 16.1274 107.556 16.2868C107.986 16.4462 108.38 16.6425 108.726 16.8632C109.072 17.084 109.334 17.3537 109.513 17.6603C109.704 17.9669 109.8 18.3226 109.812 18.715C109.836 19.2914 109.728 19.8064 109.466 20.2602C109.215 20.7139 108.845 21.0819 108.38 21.3516C107.902 21.6214 107.341 21.7931 106.673 21.8544C106.029 21.9158 105.456 21.8299 104.942 21.6214C104.429 21.413 104.035 21.0696 103.773 20.5913C103.51 20.113 103.391 19.5489 103.427 18.8744L98.3189 19.3282C98.2115 20.9347 98.4979 22.2591 99.1662 23.3138C99.8345 24.3685 100.801 25.1165 102.054 25.5826C103.307 26.0486 104.763 26.208 106.41 26.0608C108.165 25.9137 109.704 25.4477 111.017 24.6996C112.33 23.9392 113.344 22.9582 114.06 21.7563C114.765 20.5545 115.087 19.2055 115.003 17.6971C114.967 16.8142 114.8 16.0416 114.49 15.3793C114.18 14.7171 113.75 14.1652 113.225 13.7115C112.688 13.2577 112.091 12.8776 111.411 12.5587C110.743 12.2399 110.015 11.9823 109.239 11.7861C108.75 11.6512 108.284 11.5163 107.831 11.3937C107.377 11.2711 106.959 11.1239 106.578 10.9767C106.196 10.8173 105.873 10.6456 105.599 10.4617C105.324 10.2777 105.11 10.057 104.942 9.78718C104.775 9.52964 104.692 9.21079 104.68 8.83062C104.656 8.32782 104.763 7.87407 104.99 7.46938C105.217 7.07695 105.539 6.7581 105.957 6.52509L105.981 6.53735Z" fill="#0E1B2B"/>
<path d="M116.148 1.55746L115.766 5.55536L122.318 4.97898L120.599 24.4411L125.409 24.0119L127.103 4.56202L133.643 3.98563L134.001 0L116.148 1.55746Z" fill="#0E1B2B"/>
<path d="M91.1797 20.6263L92.7192 26.8684L97.7914 26.427L95.3925 17.4746C93.8888 18.3331 92.4447 19.4 91.1797 20.6263Z" fill="#0E1B2B"/>
<path d="M99.0307 16.0157C97.7059 15.8562 96.3454 15.8317 94.9729 15.893L91.7029 3.70312L86.1534 4.19366L75.9375 28.3527L80.9738 27.9113C84.7093 21.7182 92.1803 17.0826 99.0307 16.0157ZM88.4329 9.50376L90.1634 16.5185C88.3851 16.8986 86.6308 17.4505 84.9241 18.1495L88.4329 9.50376Z" fill="#0E1B2B"/>
</svg>
