<svg width="159" height="40" viewBox="0 0 159 40" fill="none" xmlns="http://www.w3.org/2000/svg">
<path d="M18.1828 22.5775L7.15132 23.5165L8.12843 12.7246L2.40737 13.2012L0 39.9986L5.72105 39.5081L6.74065 28.0996L17.7721 27.1745L16.7242 38.5831L22.4452 38.0925L24.8951 11.3091L19.174 11.7856L18.1828 22.5775Z" fill="#424242"/>
<path d="M25.2932 37.8547L31.0142 37.3782L33.4216 10.5807L27.7147 11.0712L25.2932 37.8547Z" fill="#424242"/>
<path d="M51.4189 10.1049C50.102 9.53029 48.4593 9.33408 46.4767 9.50226L36.2242 10.3712L33.8168 37.1547L39.5378 36.6782L40.4866 26.3768L43.9702 26.0825L47.7512 35.9774L54.0387 35.4448L49.7055 24.8912C50.0736 24.737 50.4418 24.5688 50.7817 24.3726C52.3677 23.4756 53.5714 22.3264 54.3928 20.9108C55.2141 19.4953 55.5964 17.9115 55.5115 16.1456C55.469 14.8281 55.115 13.6368 54.4211 12.5716C53.7272 11.5065 52.7218 10.6796 51.4048 10.1049H51.4189ZM41.5487 14.6459L45.8537 14.2815C47.1565 14.1694 48.1053 14.3796 48.7142 14.9122C49.3231 15.4448 49.6488 16.1876 49.6771 17.1547C49.7338 18.4721 49.3656 19.5513 48.5726 20.4063C47.7796 21.2612 46.6467 21.7517 45.1739 21.8639L40.869 22.2283L41.5629 14.6459H41.5487Z" fill="#424242"/>
<path d="M75.2109 11.5888L75.664 7.01978L58.4017 8.47738L55.9944 35.2749L73.2142 33.8172L73.6248 29.2622L62.1261 30.2293L62.7492 23.3477L73.1151 22.4648L73.5116 18.106L63.1457 18.9749L63.7121 12.5559L75.2109 11.5888Z" fill="#424242"/>
<path d="M91.5503 16.7342L82.6288 17.491L83.2236 10.9038L94.7223 9.93672L95.133 5.38171L77.9132 6.83932L75.5058 33.6228L81.2127 33.1463L82.204 21.9339L91.1254 21.1771L91.5503 16.7342Z" fill="#424242"/>
<path d="M125.752 7.468C126.247 7.20171 126.828 7.03352 127.494 6.97746C128.159 6.9214 128.74 6.99147 129.235 7.18769C129.731 7.38391 130.128 7.70626 130.411 8.12672C130.694 8.5612 130.807 9.09379 130.765 9.72448L136.897 9.20591C136.953 7.51004 136.613 6.1085 135.877 5.00129C135.141 3.89407 134.107 3.1092 132.776 2.61866C131.445 2.14214 129.873 1.97396 128.074 2.12812C126.092 2.29631 124.336 2.78685 122.806 3.61376C121.277 4.44067 120.102 5.51986 119.266 6.87935C118.431 8.22483 118.062 9.76653 118.133 11.4764C118.19 13.0882 118.742 14.4056 119.776 15.4007C120.81 16.3958 122.254 17.1386 124.109 17.6152C124.732 17.7693 125.355 17.9235 125.95 18.0917C126.559 18.2599 127.111 18.4281 127.621 18.6103C128.131 18.7925 128.598 19.0167 129.009 19.269C129.42 19.5213 129.731 19.8296 129.943 20.18C130.17 20.5304 130.283 20.9368 130.298 21.3853C130.326 22.044 130.198 22.6327 129.887 23.1512C129.589 23.6698 129.15 24.0903 128.598 24.3986C128.032 24.707 127.366 24.9032 126.573 24.9733C125.808 25.0433 125.129 24.9452 124.52 24.707C123.911 24.4687 123.444 24.0763 123.132 23.5297C122.82 22.9831 122.679 22.3384 122.721 21.5675L116.66 22.0861C116.533 23.9221 116.873 25.4358 117.666 26.6411C118.459 27.8464 119.606 28.7014 121.093 29.2339C122.58 29.7665 124.307 29.9487 126.262 29.7805C128.343 29.6124 130.17 29.0798 131.728 28.2248C133.285 27.3559 134.489 26.2346 135.339 24.8611C136.174 23.4876 136.557 21.9459 136.458 20.222C136.415 19.2129 136.217 18.3299 135.849 17.5731C135.48 16.8163 134.971 16.1856 134.348 15.667C133.71 15.1484 133.002 14.714 132.195 14.3496C131.402 13.9852 130.538 13.6908 129.618 13.4666C129.037 13.3124 128.485 13.1583 127.947 13.0181C127.409 12.8779 126.913 12.7098 126.46 12.5416C126.007 12.3594 125.624 12.1632 125.299 11.9529C124.973 11.7427 124.718 11.4904 124.52 11.1821C124.322 10.8878 124.222 10.5234 124.208 10.0889C124.18 9.51425 124.307 8.99568 124.576 8.53317C124.846 8.08468 125.228 7.72028 125.723 7.45398L125.752 7.468Z" fill="#424242"/>
<path d="M137.816 1.77862L137.363 6.34764L145.137 5.68892L143.098 27.9314L148.805 27.4408L150.816 5.21239L158.576 4.55367L159.001 -0.00134277L137.816 1.77862Z" fill="#424242"/>
<path d="M108.191 23.5728L110.018 30.7066L116.037 30.2021L113.19 19.9708C111.406 20.9519 109.693 22.1712 108.191 23.5728Z" fill="#424242"/>
<path d="M117.511 18.3039C115.939 18.1217 114.324 18.0937 112.696 18.1637L108.816 4.23242L102.231 4.79304L90.1091 32.4034L96.085 31.8989C100.517 24.8211 109.382 19.5232 117.511 18.3039ZM104.936 10.8617L106.989 18.8785C104.879 19.313 102.797 19.9437 100.772 20.7426L104.936 10.8617Z" fill="#424242"/>
</svg>
