<svg width="109" height="57" viewBox="0 0 109 57" fill="none" xmlns="http://www.w3.org/2000/svg">
<path fill-rule="evenodd" clip-rule="evenodd" d="M22.3196 23.7051C22.9295 23.7051 23.4245 24.2313 23.4245 24.8791C23.4245 25.5269 22.9295 26.0532 22.3196 26.0532C21.71 26.0529 21.215 25.5269 21.215 24.8791C21.215 24.2313 21.71 23.7054 22.3196 23.7054V23.7051V23.7051Z" fill="#424242"/>
<path d="M19.2816 29.8879C15.8087 26.5495 14.2429 21.9754 16.2993 19.6264C18.3718 17.2581 23.1955 18.0502 27.0179 21.3955C28.8098 22.9642 30.0953 24.816 30.7184 26.5842L31.7183 26.5795C30.8352 24.6105 29.3777 22.6216 27.4141 20.9034C22.4711 16.5762 16.2497 15.6008 13.5156 18.7245C10.7801 21.8485 12.4833 27.8886 17.4273 32.2161C18.0567 32.7673 18.9659 33.2632 19.2816 33.7043V29.8879V29.8879Z" fill="#424242"/>
<path d="M102.345 26.5476V24.5031H101.615V24.0874H103.568V24.5031H102.841V26.5476H102.345ZM103.883 26.5476V24.0874H104.626L105.072 25.7643L105.515 24.0874H106.259V26.5476H105.797V24.6108L105.308 26.5476H104.831L104.343 24.6108V26.5476H103.883Z" fill="#424242"/>
<path d="M23.0261 35.047C23.0261 35.6263 22.3121 35.6591 21.8906 35.5237C21.6927 35.463 21.5939 35.3043 21.5939 35.047V28.1981C21.5939 27.9398 21.6927 27.782 21.8906 27.722C21.9588 27.7046 22.1706 27.6948 22.5235 27.6948C22.8579 27.6948 23.0261 27.8634 23.0261 28.1981V35.047Z" fill="#424242"/>
<path d="M33.0851 33.6211C33.0851 34.0401 33.0195 34.3683 32.8863 34.6105C32.5185 35.2523 31.4401 35.5711 29.6439 35.5711H24.6808C24.3504 35.5711 24.1859 35.4013 24.1859 35.0626C24.1859 34.8334 24.2096 34.6746 24.256 34.5837C24.3279 34.4536 24.4719 34.3911 24.6808 34.3911H29.6454C30.9823 34.3911 31.6529 34.1439 31.6529 33.6483V32.9715C31.6529 32.4799 31.0061 32.2182 29.7101 32.1832C27.5025 32.1188 26.3003 32.068 26.1008 32.0361C24.8115 31.815 24.1666 31.2376 24.1666 30.3061V29.7107C24.1666 28.7728 24.6724 28.1692 25.6866 27.8977C26.1568 27.7717 27.0492 27.7104 28.3599 27.7104C28.6961 27.7104 28.8644 27.8778 28.8644 28.214V28.3696C28.8644 28.7087 28.6961 28.8791 28.3599 28.8791H28.0821H27.7137C26.3013 28.8791 25.5967 29.1529 25.5967 29.7022V30.2489C25.5967 30.5921 25.8931 30.8156 26.4803 30.9179C26.7193 30.9583 27.1391 30.9753 27.7472 30.9753H29.6631C30.5167 30.9753 31.2396 31.0944 31.8331 31.3324C32.6688 31.6673 33.0851 32.1968 33.0851 32.9184V33.6211V33.6211Z" fill="#424242"/>
<path d="M39.7156 31.5225C39.7156 31.9405 39.5227 32.1485 39.136 32.1485H34.3144C34.0275 32.1485 33.8567 32.0965 33.792 31.996C33.7528 31.9218 33.7323 31.7293 33.7323 31.4146C33.7323 30.9979 33.9262 30.7879 34.3138 30.7879H39.1351C39.4084 30.7879 39.5767 30.8409 39.6414 30.9422C39.6885 31.0107 39.714 31.203 39.714 31.5225H39.7156ZM54.7629 28.3637C54.7629 28.4824 54.725 28.6178 54.6531 28.7678L51.7803 34.8818C51.6114 35.2422 51.3014 35.42 50.838 35.42C50.3982 35.42 50.093 35.2479 49.9196 34.8985L47.635 30.2L45.3131 34.9155C45.1379 35.2697 44.8222 35.4456 44.3644 35.4456C43.8912 35.4456 43.5686 35.2616 43.4038 34.8909L40.5869 28.7678C40.519 28.5591 40.4846 28.4249 40.4846 28.3637C40.4846 27.9988 40.7274 27.8163 41.2145 27.8163C41.6334 27.8163 41.9096 27.9441 42.0384 28.1951L44.4152 33.2386L46.7406 28.5424C46.9193 28.166 47.2186 27.9789 47.6347 27.9789C48.0362 27.9789 48.3279 28.1635 48.517 28.5345L50.837 33.2386L53.2113 28.1951C53.3297 27.9441 53.6012 27.8163 54.0274 27.8163C54.5167 27.8163 54.761 27.9988 54.761 28.3637H54.7629ZM57.4874 26.7938C57.4874 27.0747 57.3803 27.2941 57.1641 27.4561C56.9782 27.595 56.7506 27.6657 56.4816 27.6657C56.2126 27.6657 55.9847 27.595 55.7996 27.4561C55.5841 27.2941 55.4761 27.0747 55.4761 26.7938C55.4761 26.5163 55.5841 26.2972 55.7996 26.1343C55.985 25.9942 56.2129 25.9257 56.4816 25.9257C56.7502 25.9257 56.9779 25.9942 57.1641 26.1343C57.3803 26.2972 57.4874 26.5163 57.4874 26.7938ZM57.2733 34.9364C57.2733 35.36 57.0814 35.5718 56.6953 35.5718C56.3155 35.5718 56.0945 35.5526 56.032 35.5166C55.8315 35.4377 55.7314 35.2422 55.7314 34.9364V28.454C55.7314 28.0335 55.925 27.8242 56.3104 27.8242C56.683 27.8242 56.9027 27.8447 56.9645 27.8819C57.1717 27.9622 57.2727 28.1529 57.2727 28.454V34.9364H57.2733V34.9364ZM62.8449 28.6554C62.8449 29.0816 62.6128 29.2931 62.1542 29.2931C62.0907 29.2931 61.9982 29.2878 61.8789 29.2795C61.7583 29.2707 61.6646 29.2672 61.6021 29.2672C60.4116 29.2672 59.8168 29.5927 59.8168 30.2417V34.9364C59.8168 35.2479 59.7082 35.4456 59.4939 35.5252C59.4055 35.5561 59.181 35.5718 58.8183 35.5718C58.4515 35.5718 58.2649 35.3569 58.2649 34.9288V30.2417C58.2649 29.2318 58.7381 28.5481 59.683 28.1882C60.2626 27.9622 61.1219 27.8494 62.2624 27.8494C62.6511 27.8494 62.8436 28.1184 62.8436 28.6554H62.8449ZM72.9621 31.8445C72.9621 32.3117 72.8148 32.5447 72.5281 32.5447H64.8202V32.5996C64.8202 33.3311 65.2126 33.7989 65.9977 34.0079C66.1669 34.0527 66.4154 34.0846 66.7415 34.1092C67.0685 34.1336 67.4843 34.1455 67.9862 34.1455C68.3692 34.1455 68.5576 34.4088 68.5576 34.9338C68.5576 35.36 68.3688 35.5718 67.9859 35.5718C67.4688 35.5718 67.0417 35.5699 66.7115 35.5611C66.3826 35.5526 66.1288 35.5387 65.958 35.5166C65.1046 35.42 64.4787 35.2003 64.0786 34.8565C63.5025 34.3687 63.2168 33.7926 63.2168 33.1341V30.291C63.2168 29.3982 63.6584 28.7388 64.538 28.3085C65.1419 27.9988 65.9409 27.8409 66.935 27.8409H69.8308C70.6422 27.8409 71.3152 27.9893 71.8509 28.2845C72.5912 28.6605 72.9593 29.2265 72.9593 29.9835V31.8445H72.9621V31.8445ZM71.4481 31.0729V30.1202C71.4481 29.5406 70.3965 29.2518 68.2953 29.2518C67.0566 29.2518 66.2048 29.3016 65.7451 29.3982C65.093 29.5327 64.7675 29.7931 64.7675 30.1868V31.0729H71.4481V31.0729ZM75.4069 34.9364C75.4069 35.36 75.2155 35.5718 74.8354 35.5718C74.457 35.5718 74.235 35.5526 74.1732 35.5166C73.9629 35.4317 73.8574 35.2357 73.8574 34.9364V26.3935C73.8574 25.9717 74.0466 25.7637 74.4289 25.7637C74.7878 25.7637 75.011 25.7788 75.099 25.8123C75.3052 25.8871 75.4065 26.0822 75.4065 26.3935V34.9364H75.4069ZM86.0412 31.8445C86.0412 32.3117 85.8963 32.5447 85.6081 32.5447H77.9001V32.5996C77.9001 33.3311 78.2932 33.7989 79.0761 34.0079C79.2469 34.0527 79.4944 34.0846 79.8205 34.1092C80.1466 34.1336 80.5624 34.1455 81.0662 34.1455C81.447 34.1455 81.6389 34.4088 81.6389 34.9338C81.6389 35.36 81.447 35.5718 81.0662 35.5718C80.5472 35.5718 80.1201 35.5699 79.7899 35.5611C79.4606 35.5526 79.2081 35.5387 79.0379 35.5166C78.185 35.42 77.5576 35.2003 77.1564 34.8565C76.5821 34.3687 76.2949 33.7926 76.2949 33.1341V30.291C76.2949 29.3982 76.7365 28.7388 77.6167 28.3085C78.2215 27.9988 79.0196 27.8409 80.0134 27.8409H82.9092C83.7221 27.8409 84.3958 27.9893 84.93 28.2845C85.6721 28.6605 86.0396 29.2265 86.0396 29.9835V31.8445H86.0412ZM84.5262 31.0729V30.1202C84.5262 29.5406 83.4753 29.2518 81.3747 29.2518C80.134 29.2518 79.2848 29.3016 78.8249 29.3982C78.1733 29.5327 77.8481 29.7931 77.8481 30.1868V31.0729H84.5262ZM95.5933 33.3642C95.5933 34.8353 94.5702 35.5718 92.5214 35.5718H87.2774C86.8926 35.5718 86.7038 35.36 86.7038 34.9338C86.7038 34.4088 86.8923 34.1455 87.2739 34.1455H92.5289C93.4988 34.1455 93.9827 33.8845 93.9827 33.3642V33.0757C93.9827 32.6082 93.5401 32.3752 92.6622 32.3752H90.1395C87.8229 32.3752 86.6627 31.6649 86.6627 30.25V29.8288C86.6627 28.8922 87.2458 28.2898 88.4104 28.0256C88.6472 27.9681 88.9903 27.9249 89.444 27.8934C89.8954 27.8637 90.4656 27.8494 91.1553 27.8494C91.5402 27.8494 91.7315 28.1184 91.7315 28.6554C91.7315 29.0721 91.5402 29.2824 91.155 29.2824H90.0375C89.4503 29.2824 89.1043 29.29 88.9856 29.3063C88.4723 29.3812 88.2137 29.5563 88.2137 29.8288V30.2332C88.2137 30.6957 88.8571 30.9255 90.1476 30.9255H92.7149C94.6334 30.9255 95.5902 31.6216 95.5902 33.0116V33.3642H95.5933V33.3642ZM105.148 33.3642C105.148 34.8353 104.124 35.5718 102.076 35.5718H96.8309C96.4466 35.5718 96.2566 35.36 96.2566 34.9338C96.2566 34.4088 96.4463 34.1455 96.8283 34.1455H102.083C103.052 34.1455 103.538 33.8845 103.538 33.3642V33.0757C103.538 32.6082 103.096 32.3752 102.215 32.3752H99.696C97.3754 32.3752 96.2178 31.6649 96.2178 30.25V29.8288C96.2178 28.8922 96.8009 28.2898 97.9654 28.0256C98.2022 27.9681 98.545 27.9249 98.9996 27.8934C99.4501 27.8637 100.019 27.8494 100.708 27.8494C101.095 27.8494 101.287 28.1184 101.287 28.6554C101.287 29.0721 101.095 29.2824 100.708 29.2824H99.5915C99.0072 29.2824 98.6574 29.29 98.5391 29.3063C98.0267 29.3812 97.7675 29.5563 97.7675 29.8288V30.2332C97.7675 30.6957 98.4122 30.9255 99.6998 30.9255H102.272C104.188 30.9255 105.146 31.6216 105.146 33.0116V33.3642H105.148V33.3642Z" fill="#424242"/>
<path d="M34.9021 38.314C30.9548 42.0654 22.6651 40.5267 15.9876 34.6814C9.06764 28.6233 6.50078 20.2348 10.256 15.9456C14.0101 11.6565 22.6642 13.0907 29.5847 19.1488C32.1645 21.4067 34.1376 23.9884 35.4053 26.5603L37.0387 26.5524C35.4224 23.6521 33.1283 20.7924 30.2325 18.2573C21.2811 10.4216 10.0106 8.65562 5.05904 14.3118C0.107153 19.9693 3.34924 30.9064 12.3003 38.7424C21.2523 46.5785 32.5222 48.3445 37.4744 42.6879C38.1708 41.8921 38.6996 40.9892 39.0788 40.0077L34.9021 38.314V38.314Z" fill="#424242"/>
</svg>
