<svg width="133" height="57" viewBox="0 0 133 57" fill="none" xmlns="http://www.w3.org/2000/svg">
<path d="M43.3256 42.6323H46.2127L45.8733 44.5569H45.2438L45.3411 44.0053H43.7051L43.6078 44.5569H42.9863L43.3256 42.6323V42.6323ZM43.7933 43.5048H45.4293L45.4949 43.1326H43.859L43.7933 43.5048Z" fill="#424242"/>
<path d="M43.3256 42.6323H46.2127L45.8733 44.5569H45.2438L45.3411 44.0053H43.7051L43.6078 44.5569H42.9863L43.3256 42.6323V42.6323ZM43.7933 43.5048H45.4293L45.4949 43.1326H43.859L43.7933 43.5048Z" fill="#424242" fill-opacity="0.18"/>
<path fill-rule="evenodd" clip-rule="evenodd" d="M47.3381 42.6318H46.7126L46.3733 44.5564H46.9988L47.3381 42.6318Z" fill="#424242"/>
<path fill-rule="evenodd" clip-rule="evenodd" d="M47.3381 42.6318H46.7126L46.3733 44.5564H46.9988L47.3381 42.6318Z" fill="#424242" fill-opacity="0.18"/>
<path d="M50.725 42.6318L50.4856 43.9888H49.8601L50.2151 44.3865L50.1851 44.5564H49.5435L49.0461 43.9888L48.2196 43.9919C48.2277 43.9919 48.2305 43.9983 48.2282 44.0111C48.2242 44.0111 48.2202 44.0111 48.2167 44.008L48.12 44.5564H47.4985L47.838 42.6318H50.725V42.6318ZM48.3717 43.1291L48.3084 43.4883H49.9444L50.0077 43.1291H48.3717Z" fill="#424242"/>
<path d="M50.725 42.6318L50.4856 43.9888H49.8601L50.2151 44.3865L50.1851 44.5564H49.5435L49.0461 43.9888L48.2196 43.9919C48.2277 43.9919 48.2305 43.9983 48.2282 44.0111C48.2242 44.0111 48.2202 44.0111 48.2167 44.008L48.12 44.5564H47.4985L47.838 42.6318H50.725V42.6318ZM48.3717 43.1291L48.3084 43.4883H49.9444L50.0077 43.1291H48.3717Z" fill="#424242" fill-opacity="0.18"/>
<path d="M54.1108 42.6349L54.0066 43.2253H53.3771L53.3935 43.1322H51.7575L51.7202 43.344H53.9857L53.7719 44.5564H50.8849L50.9895 43.963H51.611L51.5946 44.0561H53.2306L53.2679 43.8443H51.0105L51.2242 42.6318L54.1108 42.6349V42.6349Z" fill="#424242"/>
<path d="M54.1108 42.6349L54.0066 43.2253H53.3771L53.3935 43.1322H51.7575L51.7202 43.344H53.9857L53.7719 44.5564H50.8849L50.9895 43.963H51.611L51.5946 44.0561H53.2306L53.2679 43.8443H51.0105L51.2242 42.6318L54.1108 42.6349V42.6349Z" fill="#424242" fill-opacity="0.18"/>
<path d="M54.6104 42.6349L57.498 42.6318L57.1586 44.5564H54.2716L54.6104 42.6349ZM55.1442 43.1322L54.9813 44.0561H56.6173L56.7802 43.1322H55.1442Z" fill="#424242"/>
<path d="M54.6104 42.6349L57.498 42.6318L57.1586 44.5564H54.2716L54.6104 42.6349ZM55.1442 43.1322L54.9813 44.0561H56.6173L56.7802 43.1322H55.1442Z" fill="#424242" fill-opacity="0.18"/>
<path d="M57.9975 42.6318H60.6641L60.5758 43.1322H58.5388L58.5015 43.344H60.1415L60.0532 43.8443H58.4132L58.2876 44.5564H57.6581L57.9975 42.6318V42.6318Z" fill="#424242"/>
<path d="M57.9975 42.6318H60.6641L60.5758 43.1322H58.5388L58.5015 43.344H60.1415L60.0532 43.8443H58.4132L58.2876 44.5564H57.6581L57.9975 42.6318V42.6318Z" fill="#424242" fill-opacity="0.18"/>
<path d="M60.9115 42.6318H63.7985L63.7104 43.1322H62.5796L62.3284 44.5564H61.7029L61.9541 43.1322H60.8232L60.9115 42.6318Z" fill="#424242"/>
<path d="M60.9115 42.6318H63.7985L63.7104 43.1322H62.5796L62.3284 44.5564H61.7029L61.9541 43.1322H60.8232L60.9115 42.6318Z" fill="#424242" fill-opacity="0.18"/>
<path d="M69.2087 42.6318L69.1205 43.1322H67.0836L67.0461 43.344H68.6862L68.598 43.8443H66.958L66.9207 44.0561H68.9575L68.8694 44.5564H66.2029L66.5422 42.6318H69.2087V42.6318Z" fill="#424242"/>
<path d="M69.2087 42.6318L69.1205 43.1322H67.0836L67.0461 43.344H68.6862L68.598 43.8443H66.958L66.9207 44.0561H68.9575L68.8694 44.5564H66.2029L66.5422 42.6318H69.2087V42.6318Z" fill="#424242" fill-opacity="0.18"/>
<path d="M71.7297 43.982L71.9672 42.6348H72.5968L72.2575 44.5594H71.4154L70.2306 43.2057L69.992 44.5594H69.3704L69.7098 42.6348H70.5518L71.7297 43.982Z" fill="#424242"/>
<path d="M71.7297 43.982L71.9672 42.6348H72.5968L72.2575 44.5594H71.4154L70.2306 43.2057L69.992 44.5594H69.3704L69.7098 42.6348H70.5518L71.7297 43.982Z" fill="#424242" fill-opacity="0.18"/>
<path d="M75.9837 42.6348L75.8689 43.2859H75.2394L75.2659 43.1351H73.63L73.467 44.0591H75.103L75.1303 43.905H74.5047L74.593 43.4046H75.8481L75.6444 44.5594H72.7573L73.0968 42.6348H75.9837V42.6348Z" fill="#424242"/>
<path d="M75.9837 42.6348L75.8689 43.2859H75.2394L75.2659 43.1351H73.63L73.467 44.0591H75.103L75.1303 43.905H74.5047L74.593 43.4046H75.8481L75.6444 44.5594H72.7573L73.0968 42.6348H75.9837V42.6348Z" fill="#424242" fill-opacity="0.18"/>
<path fill-rule="evenodd" clip-rule="evenodd" d="M77.1091 42.6318H76.4836L76.1437 44.5597H76.7692L77.1091 42.6318Z" fill="#424242"/>
<path fill-rule="evenodd" clip-rule="evenodd" d="M77.1091 42.6318H76.4836L76.1437 44.5597H76.7692L77.1091 42.6318Z" fill="#424242" fill-opacity="0.18"/>
<path d="M79.6312 43.982L79.8687 42.6348H80.4983L80.1589 44.5594H79.3168L78.132 43.2057L77.8933 44.5594H77.2717L77.6112 42.6348H78.4532L79.6312 43.982Z" fill="#424242"/>
<path d="M79.6312 43.982L79.8687 42.6348H80.4983L80.1589 44.5594H79.3168L78.132 43.2057L77.8933 44.5594H77.2717L77.6112 42.6348H78.4532L79.6312 43.982Z" fill="#424242" fill-opacity="0.18"/>
<path d="M83.6622 42.6318L83.574 43.1322H81.537L81.4996 43.344H83.1397L83.0514 43.8443H81.4114L81.3741 44.0561H83.4111L83.3228 44.5564H80.6562L80.9957 42.6318H83.6622V42.6318Z" fill="#424242"/>
<path d="M83.6622 42.6318L83.574 43.1322H81.537L81.4996 43.344H83.1397L83.0514 43.8443H81.4114L81.3741 44.0561H83.4111L83.3228 44.5564H80.6562L80.9957 42.6318H83.6622V42.6318Z" fill="#424242" fill-opacity="0.18"/>
<path d="M86.8296 42.6318L86.7413 43.1322H84.7043L84.667 43.344H86.307L86.2188 43.8443H84.5787L84.5414 44.0561H86.5784L86.4901 44.5564H83.8236L84.163 42.6318H86.8296V42.6318Z" fill="#424242"/>
<path d="M86.8296 42.6318L86.7413 43.1322H84.7043L84.667 43.344H86.307L86.2188 43.8443H84.5787L84.5414 44.0561H86.5784L86.4901 44.5564H83.8236L84.163 42.6318H86.8296V42.6318Z" fill="#424242" fill-opacity="0.18"/>
<path d="M90.2179 42.6318L89.9787 43.9888H89.3532L89.708 44.3865L89.6781 44.5564H89.0365L88.5392 43.9888L87.7126 43.9919C87.7206 43.9919 87.7234 43.9983 87.7212 44.0111C87.7172 44.0111 87.7132 44.0111 87.7098 44.008L87.613 44.5564H86.9915L87.3309 42.6318H90.2179V42.6318ZM87.8648 43.1291L87.8014 43.4883H89.4374L89.5007 43.1291H87.8648Z" fill="#424242"/>
<path d="M90.2179 42.6318L89.9787 43.9888H89.3532L89.708 44.3865L89.6781 44.5564H89.0365L88.5392 43.9888L87.7126 43.9919C87.7206 43.9919 87.7234 43.9983 87.7212 44.0111C87.7172 44.0111 87.7132 44.0111 87.7098 44.008L87.613 44.5564H86.9915L87.3309 42.6318H90.2179V42.6318ZM87.8648 43.1291L87.8014 43.4883H89.4374L89.5007 43.1291H87.8648Z" fill="#424242" fill-opacity="0.18"/>
<path fill-rule="evenodd" clip-rule="evenodd" d="M91.3414 42.6318H90.7159L90.376 44.5597H91.0015L91.3414 42.6318Z" fill="#424242"/>
<path fill-rule="evenodd" clip-rule="evenodd" d="M91.3414 42.6318H90.7159L90.376 44.5597H91.0015L91.3414 42.6318Z" fill="#424242" fill-opacity="0.18"/>
<path d="M93.8627 43.982L94.1003 42.6348H94.7298L94.3904 44.5594H93.5484L92.3636 43.2057L92.1249 44.5594H91.5034L91.8427 42.6348H92.6848L93.8627 43.982Z" fill="#424242"/>
<path d="M93.8627 43.982L94.1003 42.6348H94.7298L94.3904 44.5594H93.5484L92.3636 43.2057L92.1249 44.5594H91.5034L91.8427 42.6348H92.6848L93.8627 43.982Z" fill="#424242" fill-opacity="0.18"/>
<path d="M98.1168 42.6348L98.002 43.2859H97.3724L97.399 43.1351H95.763L95.6001 44.0591H97.2361L97.2633 43.905H96.6377L96.7259 43.4046H97.981L97.7774 44.5594H94.8904L95.2297 42.6348H98.1168V42.6348Z" fill="#424242"/>
<path d="M98.1168 42.6348L98.002 43.2859H97.3724L97.399 43.1351H95.763L95.6001 44.0591H97.2361L97.2633 43.905H96.6377L96.7259 43.4046H97.981L97.7774 44.5594H94.8904L95.2297 42.6348H98.1168V42.6348Z" fill="#424242" fill-opacity="0.18"/>
<path d="M103.473 44.2742L103.895 44.4923L103.806 44.9992L103.29 44.7425L103.243 44.9414H100.524L100.758 43.6133H100.903L101.076 42.6318H103.654L103.536 43.299H102.923L102.953 43.1291H101.602L101.541 43.4755L102.897 44.0625L102.95 43.7578H103.564L103.473 44.2742V44.2742ZM102.16 44.2839L101.318 43.9181L101.224 44.4507H102.547C102.51 44.4346 102.447 44.4057 102.361 44.3705C102.275 44.3352 102.208 44.3062 102.16 44.2839Z" fill="#424242"/>
<path d="M103.473 44.2742L103.895 44.4923L103.806 44.9992L103.29 44.7425L103.243 44.9414H100.524L100.758 43.6133H100.903L101.076 42.6318H103.654L103.536 43.299H102.923L102.953 43.1291H101.602L101.541 43.4755L102.897 44.0625L102.95 43.7578H103.564L103.473 44.2742V44.2742ZM102.16 44.2839L101.318 43.9181L101.224 44.4507H102.547C102.51 44.4346 102.447 44.4057 102.361 44.3705C102.275 44.3352 102.208 44.3062 102.16 44.2839Z" fill="#424242" fill-opacity="0.18"/>
<path d="M108.094 43.5652L109.233 42.6318H109.879L109.539 44.5597H108.913L109.119 43.3921L107.957 44.3415L107.126 43.3953L106.921 44.5597H106.299L106.639 42.6318H107.281L108.094 43.5652V43.5652Z" fill="#424242"/>
<path d="M108.094 43.5652L109.233 42.6318H109.879L109.539 44.5597H108.913L109.119 43.3921L107.957 44.3415L107.126 43.3953L106.921 44.5597H106.299L106.639 42.6318H107.281L108.094 43.5652V43.5652Z" fill="#424242" fill-opacity="0.18"/>
<path d="M110.378 42.6318H113.265L112.926 44.5564H112.297L112.394 44.0048H110.758L110.661 44.5564H110.039L110.378 42.6318V42.6318ZM110.846 43.5043H112.482L112.548 43.1322H110.912L110.846 43.5043Z" fill="#424242"/>
<path d="M110.378 42.6318H113.265L112.926 44.5564H112.297L112.394 44.0048H110.758L110.661 44.5564H110.039L110.378 42.6318V42.6318ZM110.846 43.5043H112.482L112.548 43.1322H110.912L110.846 43.5043Z" fill="#424242" fill-opacity="0.18"/>
<path d="M116.556 43.1322H114.299L114.136 44.0561H116.393L116.305 44.5564H113.426L113.765 42.6318H116.644L116.556 43.1322V43.1322Z" fill="#424242"/>
<path d="M116.556 43.1322H114.299L114.136 44.0561H116.393L116.305 44.5564H113.426L113.765 42.6318H116.644L116.556 43.1322V43.1322Z" fill="#424242" fill-opacity="0.18"/>
<path d="M119.468 42.6348H120.09L119.75 44.5594H119.129L119.254 43.8472H117.55L117.425 44.5594H116.803L117.143 42.6348H117.764L117.639 43.3469H119.343L119.468 42.6348Z" fill="#424242"/>
<path d="M119.468 42.6348H120.09L119.75 44.5594H119.129L119.254 43.8472H117.55L117.425 44.5594H116.803L117.143 42.6348H117.764L117.639 43.3469H119.343L119.468 42.6348Z" fill="#424242" fill-opacity="0.18"/>
<path fill-rule="evenodd" clip-rule="evenodd" d="M121.217 42.6318H120.591L120.251 44.5597H120.877L121.217 42.6318Z" fill="#424242"/>
<path fill-rule="evenodd" clip-rule="evenodd" d="M121.217 42.6318H120.591L120.251 44.5597H120.877L121.217 42.6318Z" fill="#424242" fill-opacity="0.18"/>
<path d="M123.738 43.982L123.975 42.6348H124.605L124.265 44.5594H123.423L122.239 43.2057L122 44.5594H121.378L121.718 42.6348H122.56L123.738 43.982Z" fill="#424242"/>
<path d="M123.738 43.982L123.975 42.6348H124.605L124.265 44.5594H123.423L122.239 43.2057L122 44.5594H121.378L121.718 42.6348H122.56L123.738 43.982Z" fill="#424242" fill-opacity="0.18"/>
<path fill-rule="evenodd" clip-rule="evenodd" d="M125.731 42.6318H125.105L124.765 44.5597H125.391L125.731 42.6318Z" fill="#424242"/>
<path fill-rule="evenodd" clip-rule="evenodd" d="M125.731 42.6318H125.105L124.765 44.5597H125.391L125.731 42.6318Z" fill="#424242" fill-opacity="0.18"/>
<path d="M128.25 43.982L128.487 42.6348H129.117L128.777 44.5594H127.935L126.75 43.2057L126.512 44.5594H125.89L126.23 42.6348H127.072L128.25 43.982V43.982Z" fill="#424242"/>
<path d="M128.25 43.982L128.487 42.6348H129.117L128.777 44.5594H127.935L126.75 43.2057L126.512 44.5594H125.89L126.23 42.6348H127.072L128.25 43.982V43.982Z" fill="#424242" fill-opacity="0.18"/>
<path d="M132.504 42.6348L132.389 43.2859H131.76L131.786 43.1351H130.15L129.987 44.0591H131.623L131.651 43.905H131.025L131.113 43.4046H132.368L132.165 44.5594H129.278L129.617 42.6348H132.504V42.6348Z" fill="#424242"/>
<path d="M132.504 42.6348L132.389 43.2859H131.76L131.786 43.1351H130.15L129.987 44.0591H131.623L131.651 43.905H131.025L131.113 43.4046H132.368L132.165 44.5594H129.278L129.617 42.6348H132.504V42.6348Z" fill="#424242" fill-opacity="0.18"/>
<path d="M11.065 34.1846L17.3928 28.9985H20.9793L18.9996 40.2262H15.5244L16.7594 33.2222L10.3047 38.4975L5.68467 33.2401L4.45293 40.2262H1L2.97972 28.9985H6.54396L11.065 34.1846V34.1846Z" fill="#424242"/>
<path d="M11.065 34.1846L17.3928 28.9985H20.9793L18.9996 40.2262H15.5244L16.7594 33.2222L10.3047 38.4975L5.68467 33.2401L4.45293 40.2262H1L2.97972 28.9985H6.54396L11.065 34.1846V34.1846Z" fill="#424242" fill-opacity="0.18"/>
<path d="M24.5031 37.6974H24.5015L24.0552 40.2281H20.6036L21.8762 33.0104L24.7063 30.6045H36.7357L35.0388 40.2281H31.5408L31.9869 37.6974H25.143L25.6333 34.9174H32.4771L32.7505 33.3668H25.265L24.9917 34.9174H24.9932L24.5031 37.6974V37.6974Z" fill="#424242"/>
<path d="M24.5031 37.6974H24.5015L24.0552 40.2281H20.6036L21.8762 33.0104L24.7063 30.6045H36.7357L35.0388 40.2281H31.5408L31.9869 37.6974H25.143L25.6333 34.9174H32.4771L32.7505 33.3668H25.265L24.9917 34.9174H24.9932L24.5031 37.6974V37.6974Z" fill="#424242" fill-opacity="0.18"/>
<path d="M49.656 37.5548L50.8816 30.6045H54.379L52.6821 40.2281H47.4693L41.3275 33.2421L40.0958 40.2281H36.6428L38.3397 30.6045H43.5971L49.656 37.5548V37.5548Z" fill="#424242"/>
<path d="M49.656 37.5548L50.8816 30.6045H54.379L52.6821 40.2281H47.4693L41.3275 33.2421L40.0958 40.2281H36.6428L38.3397 30.6045H43.5971L49.656 37.5548V37.5548Z" fill="#424242" fill-opacity="0.18"/>
<path d="M86.4125 30.6045L85.6057 35.1845L82.7748 37.5904H81.7065L83.2175 39.2835L83.0523 40.2281H79.4868L77.1836 37.5904L74.197 37.602L73.7335 40.2281H70.2819L71.2362 34.8103H82.1749L82.4251 33.3846H58.9454L58.23 37.4478H69.1671L68.678 40.2281H54.2859L55.5594 33.0104L58.3887 30.6045H86.4125V30.6045Z" fill="#424242"/>
<path d="M86.4125 30.6045L85.6057 35.1845L82.7748 37.5904H81.7065L83.2175 39.2835L83.0523 40.2281H79.4868L77.1836 37.5904L74.197 37.602L73.7335 40.2281H70.2819L71.2362 34.8103H82.1749L82.4251 33.3846H58.9454L58.23 37.4478H69.1671L68.678 40.2281H54.2859L55.5594 33.0104L58.3887 30.6045H86.4125V30.6045Z" fill="#424242" fill-opacity="0.18"/>
<path d="M90.2193 37.6974H90.2177L89.7714 40.2281H86.3198L87.5925 33.0104L90.4226 30.6045H102.452L100.755 40.2281H97.257L97.7032 37.6974H90.8592L91.3494 34.9174H98.1934L98.4667 33.3668H90.9813L90.7079 34.9174H90.7095L90.2193 37.6974V37.6974Z" fill="#424242"/>
<path d="M90.2193 37.6974H90.2177L89.7714 40.2281H86.3198L87.5925 33.0104L90.4226 30.6045H102.452L100.755 40.2281H97.257L97.7032 37.6974H90.8592L91.3494 34.9174H98.1934L98.4667 33.3668H90.9813L90.7079 34.9174H90.7095L90.2193 37.6974V37.6974Z" fill="#424242" fill-opacity="0.18"/>
<path d="M107.062 33.3846L105.856 40.2281H102.359L103.632 33.0104L106.462 30.6045H117.266L116.776 33.3846H107.062V33.3846ZM107.432 34.9174H113.336L112.846 37.6974H106.942L107.432 34.9174Z" fill="#424242"/>
<path d="M107.062 33.3846L105.856 40.2281H102.359L103.632 33.0104L106.462 30.6045H117.266L116.776 33.3846H107.062V33.3846ZM107.432 34.9174H113.336L112.846 37.6974H106.942L107.432 34.9174Z" fill="#424242" fill-opacity="0.18"/>
<path d="M118.068 30.6045H132.503L132.013 33.3846H126.533L125.326 40.228H121.851L123.057 33.3846H117.577L118.068 30.6045V30.6045Z" fill="#424242"/>
<path d="M118.068 30.6045H132.503L132.013 33.3846H126.533L125.326 40.228H121.851L123.057 33.3846H117.577L118.068 30.6045V30.6045Z" fill="#424242"/>
<path d="M78.9866 10L75.0851 12.7487H60.0949L58.4194 22.2505H73.4097L69.5095 25.0006H54.5181L56.729 12.4625L60.2426 10H78.9866V10Z" fill="#424242"/>
<path d="M78.9866 10L75.0851 12.7487H60.0949L58.4194 22.2505H73.4097L69.5095 25.0006H54.5181L56.729 12.4625L60.2426 10H78.9866V10Z" fill="#424242" fill-opacity="0.18"/>
<path d="M67.1858 17.7298L72.1222 13.6841H74.9202L73.5744 21.3168H70.8632L71.6282 16.9791L66.5926 21.0943L62.9885 16.993L62.2261 21.3168H59.5323L60.8782 13.6841H63.6588L67.1858 17.7298V17.7298Z" fill="#424242"/>
<path d="M67.1858 17.7298L72.1222 13.6841H74.9202L73.5744 21.3168H70.8632L71.6282 16.9791L66.5926 21.0943L62.9885 16.993L62.2261 21.3168H59.5323L60.8782 13.6841H63.6588L67.1858 17.7298V17.7298Z" fill="#424242" fill-opacity="0.18"/>
</svg>
