<svg width="200" height="45" viewBox="0 0 200 45" fill="none" xmlns="http://www.w3.org/2000/svg">
<path d="M16.5105 21.0314C13.2938 19.1443 10.077 17.2571 6.86023 15.37C11.11 12.9124 15.3597 10.4548 19.6094 7.9972C22.7857 9.86239 25.962 11.7277 29.1383 13.5929L35.6685 9.74603L18.6618 -9.1099e-07L0.0606813 11.5023C0.0404544 14.0807 0.0202269 16.6591 0 19.2375C3.29157 21.1385 6.58313 23.0394 9.8746 24.9405L16.5105 21.0314Z" fill="#202020"/>
<path d="M18.8126 23.975C22.1866 25.9545 25.5607 27.9339 28.9347 29.9133C24.7633 32.3255 20.5918 34.7379 16.4204 37.1502C13.0863 35.1922 9.7521 33.2342 6.4179 31.2763L0 35.0569L17.3506 45L35.609 33.7097C35.6288 31.1788 35.6487 28.6478 35.6685 26.117C32.2194 24.1249 28.7703 22.133 25.3212 20.141L18.8126 23.975Z" fill="#202020"/>
<path d="M25.3473 20.1407L18.8387 23.9746C22.2039 25.9488 25.569 27.923 28.9341 29.8972L35.5217 26.0167C32.1302 24.058 28.7388 22.0993 25.3473 20.1407Z" fill="#202020"/>
<path d="M185.85 27.3466V16.3513H196.837V21.0807L199.992 17.0661L199.984 16.9148C199.919 15.6696 199.666 14.8051 199.209 14.2713C198.666 13.6391 197.679 13.3184 196.276 13.3184H186.411C184.971 13.3184 184.002 13.6336 183.447 14.2837C182.918 14.9107 182.66 15.9891 182.66 17.5812V26.1673C182.66 27.759 182.918 28.8377 183.449 29.4679C184 30.1125 184.969 30.4263 186.411 30.4263H189.489L191.91 27.3466H185.85Z" fill="#202020"/>
<path d="M196.838 22.6588V27.3469H193.153L190.732 30.4263H196.277C197.7 30.4263 198.659 30.1177 199.21 29.4821C199.742 28.8647 200 27.7805 200 26.1673V18.6358L196.838 22.6588Z" fill="#202020"/>
<path d="M138.778 11.9445L138.784 31.131H141.783L141.79 19.1216L145.957 23.4027L147.78 21.0819L138.778 11.9445Z" fill="#202020"/>
<path d="M152.352 14.0296V25.727L148.47 21.7844L146.646 24.1066L155.357 33.0555V14.0218H152.761L152.352 14.0296Z" fill="#202020"/>
<path d="M96.6992 28.2049H92.9845V12.816H89.8257V31.0407H94.5229L96.6992 28.2049Z" fill="#202020"/>
<path d="M95.8417 31.0407H103.585V28.2049H98.018L95.8417 31.0407Z" fill="#202020"/>
<path d="M115.925 28.2049H112.21V12.816H109.051V31.0407H113.748L115.925 28.2049Z" fill="#202020"/>
<path d="M115.069 31.0407H122.813V28.2049H117.246L115.069 31.0407Z" fill="#202020"/>
<path d="M128.279 21.8931V31.0407H131.437V17.7774L128.279 21.8931Z" fill="#202020"/>
<path d="M131.437 16.0557V12.8152H128.279V20.1715L131.437 16.0557Z" fill="#202020"/>
<path d="M83.2317 15.916V12.8485L80.8776 15.916H83.2317Z" fill="#202020"/>
<path d="M78.4249 23.0898V19.9916H77.7443L75.3665 23.0898H78.4249Z" fill="#202020"/>
<path d="M72.3016 28.1626V23.0948H74.0483L76.4261 19.9963H72.3016V15.9142H79.5589L81.9367 12.816H72.1264H71.4502H69.0879V15.5857H69.0952C69.0914 15.6811 69.0879 15.7774 69.0879 15.8777V31.0407H83.3711V28.1626H72.3016Z" fill="#202020"/>
<path d="M176.841 15.916V12.8485L174.486 15.916H176.841Z" fill="#202020"/>
<path d="M172.034 23.0898V19.9916H171.353L168.975 23.0898H172.034Z" fill="#202020"/>
<path d="M165.908 28.1626V23.0948H167.655L170.033 19.9963H165.908V15.9142H173.165L175.543 12.816H165.733H165.057H162.694V15.5857H162.702C162.698 15.6811 162.694 15.7774 162.694 15.8777V31.0407H176.978V28.1626H165.908Z" fill="#202020"/>
<path d="M50.4918 23.4602H56.3032L59.0269 19.9332C58.9296 19.9297 58.8341 19.9248 58.7322 19.9248H51.0651C50.3995 19.9248 49.86 19.3889 49.86 18.7283V17.276C49.86 16.5879 50.4219 16.03 51.1151 16.03V16.0248H59.4755L61.9371 12.8172H51.1151H50.4918H49.5381L47.0149 16.0604C46.9897 16.3858 46.9757 16.7367 46.9757 17.1183V19.1227C46.9757 20.824 47.2272 21.972 47.7313 22.5674C48.2346 23.163 49.1549 23.4602 50.4918 23.4602Z" fill="#202020"/>
<path d="M50.4493 31.0407L53.1233 27.578H49.9052L47.7184 30.4273C48.2441 30.8356 49.0762 31.0407 50.2177 31.0407H50.4493Z" fill="#202020"/>
<path d="M61.5057 20.7984C61.2154 20.4684 60.7886 20.2353 60.2349 20.092L57.6348 23.459H58.1114C58.8028 23.459 59.3633 24.0155 59.3633 24.7022V26.2493C59.3633 26.9829 58.7639 27.578 58.025 27.578H54.4543L51.7803 31.0407H58.7315C60.0681 31.0407 60.9928 30.7489 61.5057 30.1658C62.018 29.5826 62.2747 28.4407 62.2747 26.7396V24.2246C62.2747 22.5241 62.018 21.3816 61.5057 20.7984Z" fill="#202020"/>
</svg>
