<svg width="122" height="57" viewBox="0 0 122 57" fill="none" xmlns="http://www.w3.org/2000/svg">
<g clip-path="url(#clip0_561_121)">
<mask id="mask0_561_121" style="mask-type:luminance" maskUnits="userSpaceOnUse" x="0" y="11" width="122" height="35">
<path d="M122 11H0V46H122V11Z" fill="white"/>
</mask>
<g mask="url(#mask0_561_121)">
<path d="M55.1269 15.4691H57.8797V32.2951H62.1674L66.411 34.7406V15.4691H69.1637V32.2951H73.4516L77.8231 34.8148H55.1293V15.4691H55.1269ZM42.4011 15.1943C45.3754 15.1943 47.8501 16.1398 49.828 18.0308C51.8009 19.9268 52.7923 22.298 52.7923 25.1493C52.7923 28.0007 51.7911 30.362 49.8009 32.2357C47.8034 34.102 45.2867 35.0375 42.2511 35.0375C39.2154 35.0375 36.9326 34.102 35.0014 32.2357C33.0703 30.3645 32.1085 28.0206 32.1085 25.2063C32.1085 22.392 33.0801 19.9268 35.026 18.0308C36.9694 16.1398 39.427 15.1943 42.4011 15.1943ZM42.5094 17.8229C40.3101 17.8229 38.4971 18.5185 37.0826 19.9021C35.6632 21.2882 34.9546 23.0554 34.9546 25.2038C34.9546 27.3522 35.6632 29.0229 37.0875 30.4066C38.5119 31.7927 40.2905 32.4857 42.4282 32.4857C44.566 32.4857 46.3642 31.7778 47.8034 30.3669C49.24 28.9537 49.9559 27.1963 49.9559 25.0875C49.9559 22.9787 49.2425 21.3154 47.8034 19.9169C46.3668 18.5185 44.6054 17.818 42.5094 17.818V17.8229ZM33.9313 33.7777C32.9301 34.6143 31.6656 35.0375 30.1305 35.0375C28.2315 35.0375 26.5045 34.451 24.9449 33.2802V29.763C26.4307 31.654 28.1478 32.5996 30.1035 32.5996C30.962 32.5996 31.6754 32.3619 32.2487 31.8817C32.657 32.4585 33.1269 33.0079 33.6607 33.5228C33.7517 33.6119 33.8428 33.696 33.9363 33.7802L33.9313 33.7777ZM30.3028 26.528L28.4947 25.429C27.1785 24.6247 26.2487 23.8326 25.6902 23.0504C25.1367 22.2708 24.8588 21.3723 24.8588 20.3575C24.8588 18.8353 25.3852 17.5977 26.4381 16.6472C27.486 15.6968 28.8538 15.2191 30.5291 15.2191C31.8821 15.2191 33.1392 15.5433 34.3052 16.1869C34.0936 16.3676 33.887 16.5532 33.6853 16.7512C33.2474 17.1769 32.8514 17.6249 32.4971 18.0952C31.8427 17.8427 31.1687 17.7165 30.4725 17.7165C29.5746 17.7165 28.8366 17.9244 28.261 18.3452C27.6828 18.766 27.3926 19.3056 27.3926 19.9565C27.3926 20.5382 27.6041 21.0852 28.0273 21.5926C28.4504 22.1024 29.1318 22.6322 30.0765 23.1866L30.3668 23.3573C30.2856 23.9588 30.2437 24.5801 30.2437 25.2236C30.2437 25.6692 30.2659 26.1048 30.3052 26.5305L30.3028 26.528ZM108.763 15.4691H112.094L104.426 24.8053L112.627 34.8173H109.297L102.763 26.8151L96.1429 34.8173H92.7849L101.068 24.8053L93.3926 15.4889V26.4265C93.3926 27.9859 93.2889 29.1294 93.0822 29.8571C92.8756 30.5848 92.6125 31.2036 92.2976 31.706C91.9781 32.211 91.5946 32.6664 91.1318 33.0723C89.619 34.3817 87.609 35.0375 85.105 35.0375C82.6001 35.0375 80.6573 34.3767 79.1346 33.0574C78.674 32.6614 78.2829 32.211 77.968 31.706C77.653 31.206 77.3854 30.5749 77.1689 29.815C76.9523 29.0601 76.844 27.9388 76.844 26.4488V19.8674L79.6111 15.4691V26.4488C79.6111 27.976 79.7347 29.0477 79.968 29.6764C80.2067 30.3051 80.5978 30.8496 81.1369 31.3125C82.1648 32.1689 83.4961 32.597 85.1294 32.597C86.2754 32.597 87.272 32.3842 88.1184 31.9535C88.9594 31.5228 89.5869 30.9561 90.0025 30.2432C90.4158 29.5329 90.6224 28.2681 90.6224 26.4488V19.8674L93.3827 15.479L93.375 15.4691H96.7331L102.761 22.8524L108.76 15.4691H108.763Z" fill="#424242"/>
<path fill-rule="evenodd" clip-rule="evenodd" d="M3.23493 15.1328H0V18.598C0.0492005 18.598 0.0984006 18.6005 0.147602 18.6005C2 18.6005 3.50308 17.4842 3.50308 16.1105C3.50308 15.764 3.40713 15.4323 3.23493 15.1328ZM6.61009 15.1328H3.4957C4.00246 15.6427 4.30258 16.2739 4.30258 16.957C4.30258 18.6599 2.44281 20.0411 0.150062 20.0411C0.100861 20.0411 0.0516605 20.0411 0.00246002 20.0411V23.5953C0.0516605 23.5953 0.100861 23.5953 0.150062 23.5953C4.30996 23.5953 7.68265 21.093 7.68265 18.004C7.68265 16.9545 7.29151 15.9719 6.61255 15.1328H6.61009ZM11.4072 15.1328H6.89545C8.49204 16.3753 9.47109 18.056 9.47109 19.9074C9.47109 23.729 5.29643 26.8279 0.147602 26.8279C0.0984006 26.8279 0.0492005 26.8279 0 26.8279V30.798C0.0492005 30.798 0.0984006 30.798 0.145141 30.798C7.63346 30.798 13.7024 26.2933 13.7024 20.7366C13.7024 18.6624 12.8536 16.7342 11.4047 15.1328H11.4072ZM19.813 15.1328H11.7023C14.9201 17.4025 16.9274 20.6078 16.9274 24.1622C16.9274 28.855 13.4293 32.9414 8.26077 35.0652H19.8106V15.1328H19.813Z" fill="#424242"/>
<path d="M117.318 13.7663H118.098C118.472 13.7663 118.726 13.7119 118.861 13.6005C118.997 13.4891 119.065 13.3406 119.065 13.1599C119.065 13.0411 119.031 12.9347 118.967 12.8431C118.9 12.7491 118.812 12.6797 118.696 12.6352C118.578 12.5906 118.364 12.5659 118.049 12.5659H117.318V13.7688V13.7663ZM116.676 16.0212V12.0189H118.046C118.516 12.0189 118.853 12.056 119.063 12.1303C119.274 12.2045 119.439 12.3332 119.565 12.5189C119.687 12.702 119.751 12.8976 119.751 13.1055C119.751 13.3975 119.648 13.6525 119.439 13.8678C119.232 14.0856 118.955 14.2069 118.61 14.2341C118.75 14.2935 118.863 14.3628 118.947 14.447C119.107 14.6029 119.304 14.8678 119.537 15.2415L120.022 16.0237H119.242L118.888 15.3925C118.61 14.895 118.383 14.5831 118.214 14.4594C118.096 14.3678 117.926 14.3232 117.7 14.3257H117.321V16.0237H116.679L116.676 16.0212ZM118.303 10.8556C117.781 10.8556 117.274 10.9892 116.782 11.259C116.29 11.5263 115.904 11.91 115.626 12.41C115.348 12.9075 115.21 13.4272 115.21 13.9668C115.21 14.5064 115.348 15.0188 115.621 15.5088C115.894 16.0014 116.275 16.385 116.765 16.6598C117.254 16.9345 117.769 17.0731 118.303 17.0731C118.836 17.0731 119.348 16.9345 119.838 16.6598C120.327 16.385 120.711 16.0014 120.981 15.5088C121.252 15.0163 121.387 14.5039 121.387 13.9668C121.387 13.4297 121.25 12.9099 120.971 12.41C120.696 11.9125 120.31 11.5263 119.815 11.259C119.321 10.9917 118.817 10.8556 118.3 10.8556H118.303ZM118.303 10.2393C118.925 10.2393 119.53 10.4001 120.123 10.7219C120.713 11.0412 121.176 11.5016 121.505 12.0981C121.835 12.6971 122 13.3183 122 13.9668C122 14.6153 121.838 15.2267 121.51 15.8182C121.186 16.4123 120.73 16.8702 120.143 17.1969C119.555 17.5261 118.939 17.6894 118.3 17.6894C117.661 17.6894 117.045 17.5261 116.457 17.1969C115.87 16.8702 115.412 16.4098 115.087 15.8182C114.76 15.2267 114.598 14.6079 114.598 13.9668C114.598 13.3258 114.762 12.6971 115.095 12.0981C115.426 11.5016 115.889 11.0412 116.479 10.7219C117.073 10.4001 117.677 10.2393 118.3 10.2393H118.303Z" fill="#424242"/>
</g>
</g>
<defs>
<clipPath id="clip0_561_121">
<rect width="122" height="35" fill="white"/>
</clipPath>
</defs>
</svg>
