<svg width="107" height="57" viewBox="0 0 107 57" fill="none" xmlns="http://www.w3.org/2000/svg">
<path d="M65.2579 39.4934V17.5103H73.9652C78.4814 17.5103 81.263 20.0824 81.263 24.0902C81.263 27.4999 79.3787 29.8328 75.9093 30.4609L82.3995 39.4934H77.6141L71.4528 30.6104H69.3256V39.4934H65.2579ZM69.3256 27.0213H73.8156C75.999 27.0213 77.1953 25.825 77.1953 24.0902C77.1953 22.3854 75.999 21.1592 73.8455 21.1592H69.3256V27.0213Z" fill="#424242"/>
<path d="M19.4065 17.5103H23.4741V25.4399H32.1402V17.5103H36.2078V39.4934H32.1402V29.029H23.4741V39.4934H19.4065V17.5103Z" fill="#424242"/>
<path d="M0 17.5103H15.8966V21.2788H10.012V39.4934H5.9444V21.2788H0V17.5103Z" fill="#424242"/>
<path d="M50.5941 17C56.9454 17 62.0941 22.1487 62.0941 28.5C62.0941 34.8513 56.9454 40 50.5941 40C44.243 39.9998 39.0941 34.8512 39.0941 28.5C39.0941 22.1488 44.243 17.0002 50.5941 17ZM50.597 20.6729C46.2721 20.6729 42.766 24.1789 42.766 28.5039C42.766 32.829 46.272 36.335 50.597 36.335C54.9219 36.3348 58.4281 32.8288 58.4281 28.5039C58.428 24.179 54.9219 20.673 50.597 20.6729Z" fill="#424242"/>
<path d="M95.3126 17C101.664 17 106.813 22.1487 106.813 28.5C106.813 34.8513 101.664 40 95.3126 40C88.9614 39.9999 83.8126 34.8512 83.8126 28.5C83.8126 22.1488 88.9614 17.0001 95.3126 17ZM95.3136 20.6729C90.9886 20.6729 87.4816 24.1789 87.4816 28.5039C87.4816 32.829 90.9886 36.335 95.3136 36.335C99.6384 36.3347 103.145 32.8288 103.145 28.5039C103.145 24.179 99.6384 20.6731 95.3136 20.6729Z" fill="#424242"/>
</svg>
