<svg width="115" height="57" viewBox="0 0 115 57" fill="none" xmlns="http://www.w3.org/2000/svg">
<g clip-path="url(#clip0_560_99)">
<path d="M13.0943 42.796H8.30825L0.139648 22.8442H5.52154L10.7109 37.2994L15.9007 22.8442H21.3015L13.0943 42.796Z" fill="#424242"/>
<path d="M27.7721 34.4649C28.0925 35.8853 28.7809 37.0011 29.838 37.8126C30.8953 38.6242 32.1479 39.0301 33.5957 39.0301C35.4539 39.0301 37.0492 38.4213 38.3817 37.2039L40.7267 40.5703C39.7657 41.4454 38.6603 42.1239 37.4112 42.6056C36.1621 43.0872 34.7942 43.3282 33.3076 43.3282C31.3471 43.3282 29.5757 42.8622 27.9931 41.9305C26.4106 40.9986 25.1707 39.734 24.274 38.1361C23.3768 36.5384 22.9286 34.7949 22.9286 32.9053C22.9286 30.9907 23.3515 29.2348 24.197 27.6371C25.0428 26.0392 26.2184 24.7742 27.7239 23.8423C29.2297 22.9105 30.9178 22.4443 32.7885 22.4443C34.8516 22.4443 36.6328 22.8851 38.1318 23.7661C39.6313 24.6476 40.7717 25.8682 41.5532 27.4278C42.3349 28.9871 42.7256 30.7687 42.7256 32.7724C42.7256 33.3811 42.6872 33.9453 42.6102 34.4649H27.7721ZM27.8105 30.7751H37.9974C37.7025 29.4565 37.1227 28.4388 36.2579 27.7225C35.3929 27.0059 34.3006 26.6477 32.9807 26.6477C31.6995 26.6477 30.5973 27.0125 29.6747 27.7415C28.7522 28.4706 28.1308 29.4819 27.8105 30.7751Z" fill="#424242"/>
<path d="M46.7354 14.3037H51.6177V42.7957H46.7354V14.3037Z" fill="#424242"/>
<path d="M72.3146 22.8629H76.5815V42.7958H72.2955L71.9493 40.4563C71.1805 41.3314 70.2769 42.0192 69.2391 42.5202C68.2013 43.0209 67.0416 43.2714 65.7603 43.2714C63.9411 43.2714 62.2527 42.8052 60.6958 41.8733C59.139 40.9415 57.9055 39.6796 56.9959 38.0885C56.0862 36.4971 55.6312 34.7505 55.6312 32.8486C55.6312 30.9465 56.0892 29.1996 57.0055 27.6085C57.9216 26.017 59.155 24.7552 60.7055 23.8233C62.2558 22.8913 63.9411 22.4253 65.7603 22.4253C67.0675 22.4253 68.2429 22.679 69.2873 23.1861C70.3318 23.6934 71.2382 24.3911 72.007 25.2785L72.3146 22.8629ZM71.9686 32.8672C71.9686 31.7641 71.7121 30.7656 71.1998 29.8718C70.6873 28.9776 69.9891 28.2772 69.1047 27.7701C68.2208 27.263 67.2467 27.0093 66.1832 27.0093C65.1325 27.0093 64.1714 27.263 63.3 27.7701C62.4288 28.2772 61.7434 28.9776 61.2435 29.8718C60.7439 30.7656 60.494 31.7641 60.494 32.8672C60.494 33.9706 60.7439 34.9661 61.2435 35.8535C61.7434 36.741 62.4255 37.4322 63.2903 37.9269C64.1557 38.4214 65.1199 38.6683 66.1832 38.6683C67.2467 38.6683 68.2208 38.4182 69.1047 37.9175C69.9891 37.4163 70.6873 36.7255 71.1998 35.844C71.7121 34.9625 71.9686 33.9706 71.9686 32.8672Z" fill="#424242"/>
<path d="M81.2826 16.5674C81.2826 16.0726 81.4142 15.6005 81.6766 15.1503C81.9394 14.7001 82.3048 14.3355 82.7724 14.0568C83.2399 13.7777 83.7687 13.6382 84.3581 13.6382C84.9472 13.6382 85.476 13.7777 85.9435 14.0568C86.4113 14.3355 86.7764 14.7001 87.0389 15.1503C87.3017 15.6005 87.4333 16.0726 87.4333 16.5674C87.4333 17.0621 87.3017 17.531 87.0389 17.9749C86.7764 18.4186 86.4113 18.7768 85.9435 19.0494C85.476 19.3221 84.9472 19.4583 84.3581 19.4583C83.7687 19.4583 83.2399 19.3221 82.7724 19.0494C82.3048 18.7768 81.9394 18.4186 81.6766 17.9749C81.4142 17.531 81.2826 17.0621 81.2826 16.5674ZM86.7796 42.7958H81.8784V22.8442H86.7796V42.7958Z" fill="#424242"/>
<path d="M106.631 24.0043L104.459 27.9603C103.46 27.2627 102.435 26.9141 101.384 26.9141C100.641 26.9268 99.9361 27.1583 99.27 27.6085C98.6036 28.0585 98.0622 28.6925 97.6458 29.5105C97.2293 30.3284 97.0083 31.2762 96.9826 32.3539V42.7958H92.0813V22.863H96.2908L96.6367 25.5447C97.2004 24.5683 97.9403 23.8075 98.8565 23.2624C99.7725 22.7171 100.814 22.4443 101.98 22.4443C102.749 22.4443 103.53 22.5775 104.325 22.8442C105.119 23.1103 105.888 23.497 106.631 24.0043Z" fill="#424242"/>
<path d="M107.741 40.4565C107.741 39.9494 107.869 39.48 108.125 39.0493C108.381 38.6176 108.74 38.2757 109.202 38.0221C109.663 37.7682 110.182 37.6416 110.758 37.6416C111.335 37.6416 111.854 37.7682 112.315 38.0221C112.776 38.2757 113.135 38.6176 113.391 39.0493C113.648 39.48 113.776 39.9494 113.776 40.4565C113.776 40.9762 113.648 41.4519 113.391 41.8831C113.135 42.3143 112.776 42.6534 112.315 42.9003C111.854 43.1478 111.335 43.2715 110.758 43.2715C110.182 43.2715 109.663 43.1446 109.202 42.8909C108.74 42.6375 108.381 42.2952 108.125 41.864C107.869 41.4328 107.741 40.9639 107.741 40.4565Z" fill="#424242"/>
</g>
<defs>
<clipPath id="clip0_560_99">
<rect width="114" height="30" fill="white" transform="translate(0 13.5)"/>
</clipPath>
</defs>
</svg>
