<svg xmlns="http://www.w3.org/2000/svg" width="158.667" height="158.667" version="1.0" viewBox="0 0 119 119">
    <path d="M22 .9c-9.5 3-16.5 9.6-19.9 18.7C0 25.2-.1 26.5.2 61.4c.3 35.3.4 36.2 2.6 40.3 3.5 6.6 7.9 11 14 14l5.7 2.8 29.3.2 29.2.2v-10.8l-28.4-.3-28.4-.3-4.4-3.1c-2.5-1.9-5.3-5.1-6.6-7.8-2.2-4.4-2.2-5.2-2.3-37.2 0-31.3.1-32.8 2.2-37 2.4-5 7-9 12-10.4 1.9-.6 17.8-1 35.3-1.1 31.6 0 32 0 36.5 2.4 2.8 1.4 5.8 4 7.6 6.8l3 4.4.3 28.2.3 28.3h11l-.3-29.3-.3-29.2-2.8-5.7c-3-6.1-7.4-10.5-14-14C97.6.5 96.8.5 61 .3 40.9.2 23.4.5 22 .9z"/>
    <path d="m97.8 91.8-5.8.3-.1 3.9v19.6l.1 3.6 10.5-.4c9.9-.3 10.6-.5 13.2-3.1 2.6-2.6 2.8-3.3 3.1-13.2.2-5.8 0-10.5-.5-10.5-7.9-.4-15.9-.4-20.5-.2z"/>
</svg>